<svg width="73" height="52" viewBox="0 0 73 52" fill="none" xmlns="http://www.w3.org/2000/svg">
<rect x="5" y="18" width="35" height="16" rx="5" fill="black"/>
<path d="M19.7479 26.1136C19.3975 26.1136 19.0968 25.9882 18.8459 25.7372C18.5949 25.4863 18.4695 25.1856 18.4695 24.8352C18.4695 24.4848 18.5949 24.1842 18.8459 23.9332C19.0968 23.6823 19.3975 23.5568 19.7479 23.5568C20.0982 23.5568 20.3989 23.6823 20.6499 23.9332C20.9008 24.1842 21.0263 24.4848 21.0263 24.8352C21.0263 25.0672 20.9671 25.2803 20.8487 25.4744C20.7351 25.6686 20.5812 25.8248 20.3871 25.9432C20.1977 26.0568 19.9846 26.1136 19.7479 26.1136ZM25.2557 26.1136C24.9053 26.1136 24.6046 25.9882 24.3537 25.7372C24.1027 25.4863 23.9773 25.1856 23.9773 24.8352C23.9773 24.4848 24.1027 24.1842 24.3537 23.9332C24.6046 23.6823 24.9053 23.5568 25.2557 23.5568C25.6061 23.5568 25.9067 23.6823 26.1577 23.9332C26.4086 24.1842 26.5341 24.4848 26.5341 24.8352C26.5341 25.0672 26.4749 25.2803 26.3565 25.4744C26.2429 25.6686 26.089 25.8248 25.8949 25.9432C25.7055 26.0568 25.4924 26.1136 25.2557 26.1136Z" fill="white"/>
<rect x="14" y="36" width="44" height="16" rx="5" fill="black"/>
<path d="M30.9797 44.1136C30.6293 44.1136 30.3286 43.9882 30.0777 43.7372C29.8267 43.4863 29.7013 43.1856 29.7013 42.8352C29.7013 42.4848 29.8267 42.1842 30.0777 41.9332C30.3286 41.6823 30.6293 41.5568 30.9797 41.5568C31.3301 41.5568 31.6307 41.6823 31.8817 41.9332C32.1326 42.1842 32.2581 42.4848 32.2581 42.8352C32.2581 43.0672 32.1989 43.2803 32.0805 43.4744C31.9669 43.6686 31.813 43.8248 31.6189 43.9432C31.4295 44.0568 31.2164 44.1136 30.9797 44.1136ZM36.4875 44.1136C36.1371 44.1136 35.8364 43.9882 35.5855 43.7372C35.3346 43.4863 35.2091 43.1856 35.2091 42.8352C35.2091 42.4848 35.3346 42.1842 35.5855 41.9332C35.8364 41.6823 36.1371 41.5568 36.4875 41.5568C36.8379 41.5568 37.1385 41.6823 37.3895 41.9332C37.6404 42.1842 37.7659 42.4848 37.7659 42.8352C37.7659 43.0672 37.7067 43.2803 37.5883 43.4744C37.4747 43.6686 37.3208 43.8248 37.1267 43.9432C36.9373 44.0568 36.7242 44.1136 36.4875 44.1136ZM41.9953 44.1136C41.6449 44.1136 41.3443 43.9882 41.0933 43.7372C40.8424 43.4863 40.7169 43.1856 40.7169 42.8352C40.7169 42.4848 40.8424 42.1842 41.0933 41.9332C41.3443 41.6823 41.6449 41.5568 41.9953 41.5568C42.3457 41.5568 42.6463 41.6823 42.8973 41.9332C43.1482 42.1842 43.2737 42.4848 43.2737 42.8352C43.2737 43.0672 43.2145 43.2803 43.0962 43.4744C42.9825 43.6686 42.8286 43.8248 42.6345 43.9432C42.4451 44.0568 42.232 44.1136 41.9953 44.1136Z" fill="white"/>
<rect x="45" y="18" width="27" height="16" rx="5" fill="black"/>
<path d="M55.205 26.1136C54.8546 26.1136 54.554 25.9882 54.303 25.7372C54.0521 25.4863 53.9266 25.1856 53.9266 24.8352C53.9266 24.4848 54.0521 24.1842 54.303 23.9332C54.554 23.6823 54.8546 23.5568 55.205 23.5568C55.5554 23.5568 55.8561 23.6823 56.107 23.9332C56.3579 24.1842 56.4834 24.4848 56.4834 24.8352C56.4834 25.0672 56.4242 25.2803 56.3059 25.4744C56.1922 25.6686 56.0383 25.8248 55.8442 25.9432C55.6548 26.0568 55.4418 26.1136 55.205 26.1136ZM60.7128 26.1136C60.3624 26.1136 60.0618 25.9882 59.8108 25.7372C59.5599 25.4863 59.4344 25.1856 59.4344 24.8352C59.4344 24.4848 59.5599 24.1842 59.8108 23.9332C60.0618 23.6823 60.3624 23.5568 60.7128 23.5568C61.0632 23.5568 61.3639 23.6823 61.6148 23.9332C61.8658 24.1842 61.9912 24.4848 61.9912 24.8352C61.9912 25.0672 61.932 25.2803 61.8137 25.4744C61.7 25.6686 61.5462 25.8248 61.352 25.9432C61.1626 26.0568 60.9496 26.1136 60.7128 26.1136Z" fill="white"/>
<rect x="27" width="27" height="16" rx="5" fill="black"/>
<path d="M37.205 8.11364C36.8546 8.11364 36.554 7.98816 36.303 7.73722C36.0521 7.48627 35.9266 7.18561 35.9266 6.83523C35.9266 6.48485 36.0521 6.18419 36.303 5.93324C36.554 5.68229 36.8546 5.55682 37.205 5.55682C37.5554 5.55682 37.8561 5.68229 38.107 5.93324C38.3579 6.18419 38.4834 6.48485 38.4834 6.83523C38.4834 7.06723 38.4242 7.2803 38.3059 7.47443C38.1922 7.66856 38.0383 7.82481 37.8442 7.94318C37.6548 8.05682 37.4418 8.11364 37.205 8.11364ZM42.7128 8.11364C42.3624 8.11364 42.0618 7.98816 41.8108 7.73722C41.5599 7.48627 41.4344 7.18561 41.4344 6.83523C41.4344 6.48485 41.5599 6.18419 41.8108 5.93324C42.0618 5.68229 42.3624 5.55682 42.7128 5.55682C43.0632 5.55682 43.3639 5.68229 43.6148 5.93324C43.8658 6.18419 43.9912 6.48485 43.9912 6.83523C43.9912 7.06723 43.932 7.2803 43.8137 7.47443C43.7 7.66856 43.5462 7.82481 43.352 7.94318C43.1626 8.05682 42.9496 8.11364 42.7128 8.11364Z" fill="white"/>
</svg>
