<svg width="75" height="54" viewBox="0 0 75 54" fill="none" xmlns="http://www.w3.org/2000/svg">
<path d="M17.5917 50.6201C26.5648 51.0904 34.2337 44.4379 34.6869 35.7907C34.9036 31.6556 33.4525 27.667 30.6012 24.5597C27.7561 21.4593 23.8372 19.5832 19.5657 19.2769L19.4416 19.2674C17.9449 19.1453 16.6411 20.2254 16.5264 21.6664C16.4117 23.1074 17.5312 24.3696 19.0266 24.4857L19.1766 24.4972C25.0342 24.9137 29.5587 29.8528 29.2624 35.5064C28.9603 41.2712 23.8477 45.7062 17.8657 45.3927C11.8836 45.0792 7.26257 40.134 7.56469 34.3693C7.94205 27.1686 10.0673 20.6175 13.8818 14.8974C16.7327 10.6221 19.5188 8.43095 19.5709 8.39042C20.7381 7.49328 20.9294 5.85104 19.9969 4.71889C19.4915 4.1054 18.7595 3.76712 18.0084 3.72776C17.3708 3.69444 16.7193 3.8763 16.1807 4.28767C16.0438 4.39245 12.7873 6.90756 9.45268 11.8417C6.41271 16.3397 2.67662 23.8501 2.14023 34.085C1.68704 42.7323 8.61864 50.1499 17.5917 50.6201Z" fill="black"/>
<path d="M56.2569 50.6571C65.23 51.1273 72.8989 44.4749 73.3521 35.8275C73.5688 31.6925 72.1177 27.704 69.2664 24.5963C66.4213 21.496 62.5024 19.62 58.2309 19.3134L58.1069 19.3039C56.6134 19.182 55.3062 20.262 55.1916 21.7029C55.0769 23.144 56.1964 24.4061 57.6918 24.5222L57.8418 24.5338C63.6994 24.9507 68.2239 29.8896 67.9276 35.5433C67.6255 41.3081 62.5129 45.7431 56.5309 45.4296C50.5488 45.1161 45.9278 40.171 46.2299 34.4061C46.6072 27.2056 48.7325 20.6544 52.547 14.9345C55.3979 10.6591 58.184 8.46791 58.2361 8.42738C59.4034 7.53005 59.5946 5.888 58.6621 4.75584C58.1567 4.14225 57.4247 3.80408 56.6735 3.76471C56.036 3.7313 55.3845 3.91305 54.8458 4.32452C54.709 4.4292 51.4523 6.94431 48.1178 11.8786C45.0779 16.3765 41.3418 23.8869 40.8054 34.1218C40.3522 42.7692 47.2838 50.1868 56.2569 50.6571Z" fill="black"/>
</svg>
