<svg width="509" height="633" viewBox="0 0 509 633" fill="none" xmlns="http://www.w3.org/2000/svg">
<g clip-path="url(#clip0_1802_51)">
<path d="M132.507 324.375C132.403 323.709 132.352 323.023 132.352 322.336C132.352 321.653 132.403 320.976 132.505 320.313L129.135 317.668C128.343 317.047 128.125 315.921 128.627 315.044L130.803 311.276C131.308 310.401 132.395 310.026 133.331 310.403L137.304 312.004C138.388 311.129 139.565 310.448 140.811 309.975L141.415 305.733C141.557 304.736 142.424 303.983 143.433 303.983H147.781C148.79 303.983 149.657 304.736 149.8 305.735L150.403 309.979C151.651 310.458 152.84 311.147 153.894 312.004L157.885 310.403C158.821 310.028 159.906 310.403 160.412 311.276L162.586 315.044C163.091 315.921 162.871 317.051 162.074 317.671L158.707 320.297C158.811 320.964 158.862 321.649 158.862 322.336C158.862 323.019 158.811 323.696 158.709 324.359L162.08 327.004C162.871 327.626 163.089 328.752 162.588 329.628L160.414 333.397C159.908 334.27 158.821 334.645 157.885 334.27L153.913 332.669C152.828 333.544 151.651 334.225 150.405 334.698L149.802 338.939C149.657 339.937 148.79 340.689 147.781 340.689H143.433C142.424 340.689 141.557 339.937 141.415 338.937L140.811 334.694C139.563 334.215 138.374 333.525 137.32 332.669L133.329 334.27C132.389 334.647 131.306 334.272 130.803 333.397L128.629 329.628C128.123 328.752 128.343 327.622 129.141 327.002L132.507 324.375ZM145.607 329.473C149.543 329.473 152.744 326.272 152.744 322.336C152.744 318.401 149.543 315.199 145.607 315.199C141.672 315.199 138.47 318.401 138.47 322.336C138.47 326.272 141.672 329.473 145.607 329.473Z" fill="#0169EE"/>
<path d="M116.644 302.9C116.605 302.584 116.548 302.272 116.548 301.944C116.548 301.616 116.605 301.304 116.644 300.988L114.806 299.597C114.397 299.287 114.282 298.72 114.539 298.273L116.189 295.419C116.446 294.974 116.995 294.788 117.468 294.988L119.582 295.879C120.098 295.486 120.647 295.139 121.252 294.886L121.534 292.641C121.599 292.131 122.031 291.748 122.545 291.748H125.843C126.357 291.748 126.791 292.131 126.854 292.641L127.136 294.886C127.741 295.139 128.292 295.488 128.806 295.879L130.92 294.988C131.395 294.788 131.944 294.972 132.201 295.419L133.849 298.273C134.105 298.718 133.991 299.285 133.581 299.597L131.744 300.988C131.785 301.304 131.842 301.616 131.842 301.944C131.842 302.272 131.785 302.584 131.746 302.9L133.583 304.291C133.993 304.601 134.108 305.168 133.851 305.615L132.201 308.469C131.944 308.914 131.395 309.1 130.922 308.9L128.808 308.007C128.292 308.4 127.743 308.747 127.138 309L126.856 311.245C126.791 311.757 126.359 312.14 125.845 312.14H122.547C122.033 312.14 121.599 311.757 121.536 311.247L121.254 309.002C120.649 308.749 120.098 308.4 119.584 308.009L117.47 308.9C116.995 309.1 116.446 308.916 116.189 308.469L114.541 305.615C114.284 305.17 114.399 304.603 114.809 304.291L116.644 302.9ZM124.195 306.022C126.448 306.022 128.273 304.197 128.273 301.944C128.273 299.691 126.448 297.866 124.195 297.866C121.942 297.866 120.117 299.691 120.117 301.944C120.117 304.197 121.942 306.022 124.195 306.022Z" fill="#0169EE"/>
</g>
<path d="M319.704 396.433L316.52 394.545L320.057 395.197C319.919 395.604 319.802 396.016 319.704 396.433" fill="#D1CCEB"/>
<path d="M337.375 406.719C337.171 406.719 336.965 406.667 336.777 406.555L334.976 405.487C336.265 405.477 337.556 405.44 338.84 405.376L338.385 406.145C338.165 406.514 337.775 406.719 337.375 406.719" fill="#D2CEEB"/>
<path d="M334.976 405.487L320.852 397.113C320.966 396.544 321.121 395.982 321.316 395.429L323.163 395.769L334.977 402.774C335.164 402.885 335.37 402.938 335.574 402.938C335.975 402.938 336.365 402.733 336.584 402.363L338.786 398.65L342.43 399.321L338.84 405.376C337.556 405.441 336.266 405.477 334.976 405.487Z" fill="#D1CCEB"/>
<path d="M320.852 397.113L319.703 396.433C319.801 396.017 319.919 395.604 320.056 395.197L321.316 395.429C321.121 395.982 320.966 396.544 320.852 397.113Z" fill="#DFDDF2"/>
<path d="M362.856 364.871L363.627 360.687L364.696 361.768L362.856 364.871ZM373.788 346.432L371.26 343.877L371.431 343.59C372.87 343.244 374.344 343.034 375.845 342.962L373.788 346.432ZM372.311 342.105L391.952 308.977L393.935 310.152C394.492 310.483 394.675 311.202 394.345 311.759L381.576 333.298C381.43 333.285 381.285 333.279 381.141 333.279C378.718 333.279 376.581 335.066 376.222 337.539L375.616 341.705C374.5 341.765 373.397 341.899 372.311 342.105V342.105ZM376.996 341.022L377.475 337.722C377.728 335.986 379.148 334.702 380.827 334.559L376.996 341.022Z" fill="#D7D3EE"/>
<path d="M371.431 343.59L372.311 342.105C373.397 341.899 374.5 341.765 375.616 341.705L376.222 337.539C376.581 335.066 378.718 333.278 381.141 333.278C381.285 333.278 381.43 333.285 381.576 333.297L380.827 334.559C379.148 334.702 377.728 335.985 377.475 337.721L376.996 341.021L375.845 342.962C374.344 343.034 372.87 343.243 371.431 343.59" fill="#E2DFF2"/>
<path d="M334.977 402.774L265.656 361.674C265.099 361.344 264.915 360.624 265.245 360.067L321.205 265.681C321.535 265.124 322.255 264.94 322.812 265.271L392.133 306.369C392.691 306.7 392.875 307.419 392.544 307.977L336.584 402.363C336.254 402.92 335.534 403.104 334.977 402.774" fill="#99C6FF"/>
<path d="M362.047 369.258C361.91 368.485 361.769 367.713 361.629 366.94L362.856 364.871L362.047 369.258Z" fill="#D7D3EE"/>
<path d="M355.104 401.637C355.033 401.637 354.962 401.631 354.89 401.618L351.906 401.068C351.978 400.165 351.984 399.258 351.923 398.348L353.196 398.582C353.206 398.584 353.215 398.585 353.225 398.587L354.349 398.795L354.558 397.664C354.56 397.656 354.561 397.648 354.562 397.641L354.719 396.788L354.728 396.786C356.759 396.142 357.888 393.967 357.245 391.936C357.008 391.188 356.561 390.544 355.958 390.069L356.275 388.351C356.496 388.232 356.71 388.096 356.915 387.943L358.873 386.483L356.256 400.677C356.152 401.242 355.659 401.637 355.104 401.637" fill="#D1CCEB"/>
<path d="M350.652 400.836L346.933 400.151C346.971 399.235 346.917 398.313 346.77 397.398L350.634 398.11C350.711 399.023 350.717 399.932 350.652 400.836V400.836ZM355 395.264L355.676 391.593C355.832 391.812 355.954 392.055 356.037 392.318C356.394 393.446 355.938 394.639 355 395.264Z" fill="#D1CCEB"/>
<path d="M345.672 399.918L342.431 399.321L343.886 396.866L345.437 397.152C345.62 398.07 345.698 398.997 345.672 399.918V399.918ZM356.597 386.6L359.353 371.646C359.717 372.96 360.231 374.246 360.901 375.478L359.21 384.65L356.597 386.6ZM361.29 373.366C360.749 372.083 360.376 370.754 360.165 369.41L361.629 366.94C361.769 367.713 361.91 368.485 362.047 369.258L361.29 373.366" fill="#D1CCEB"/>
<path d="M351.906 401.067L350.653 400.836C350.718 399.932 350.712 399.022 350.635 398.11L351.923 398.348C351.984 399.258 351.978 400.165 351.906 401.067V401.067ZM354.719 396.788L355 395.264C355.939 394.639 356.394 393.445 356.038 392.318C355.955 392.055 355.832 391.812 355.677 391.593L355.958 390.069C356.561 390.544 357.008 391.187 357.245 391.936C357.888 393.967 356.759 396.142 354.728 396.785L354.719 396.788Z" fill="#DFDDF2"/>
<path d="M346.933 400.151L345.673 399.918C345.698 398.997 345.62 398.07 345.438 397.152L346.77 397.398C346.917 398.313 346.971 399.235 346.933 400.151Z" fill="#DFDDF2"/>
<path d="M356.274 388.351L356.598 386.599L359.21 384.649L358.873 386.483L356.915 387.943C356.71 388.096 356.496 388.232 356.274 388.351" fill="#DFDDF2"/>
<path d="M360.901 375.478C360.232 374.246 359.717 372.96 359.354 371.646L359.586 370.387L360.165 369.41C360.376 370.754 360.75 372.084 361.29 373.366L360.901 375.478" fill="#DFDDF2"/>
<path d="M314.283 394.132L302.5 391.961V389.238L309.855 390.593L310.483 390.965C310.808 391.905 311.468 392.671 312.354 393.131L314.283 394.132" fill="#D1CCEB"/>
<path d="M316.519 394.545L316.337 394.511C316.343 394.49 316.35 394.469 316.356 394.448L316.519 394.545Z" fill="#D1CCEB"/>
<path d="M316.337 394.511L314.283 394.132L312.354 393.131C311.468 392.671 310.807 391.905 310.482 390.965L316.356 394.448C316.35 394.469 316.343 394.49 316.337 394.511Z" fill="#DFDDF2"/>
<path d="M301.233 391.727L277.005 387.261V386.056H285.243L301.233 389.004V391.727ZM278.369 384.789H277.005V384.538L278.369 384.789Z" fill="#D1CCEB"/>
<path d="M302.5 391.96L301.233 391.727V389.004L302.5 389.238V391.96ZM285.243 386.057H277.005V384.789H278.369L285.243 386.057Z" fill="#E3E3F4"/>
<path d="M375.461 296.485L373.43 295.281L374.18 291.211L375.206 291.4C375.843 291.517 376.264 292.129 376.146 292.766L375.461 296.485" fill="#D1CCEB"/>
<path d="M342.43 399.321L338.786 398.649L340.241 396.194L343.885 396.866L342.43 399.321" fill="#BBB6E1"/>
<path d="M310.482 390.965L309.854 390.593L310.399 390.694C310.415 390.752 310.432 390.81 310.45 390.868C310.46 390.901 310.471 390.933 310.482 390.965" fill="#BBB6E1"/>
<path d="M320.056 395.197L316.519 394.545L316.355 394.448C316.362 394.425 316.369 394.402 316.377 394.38L316.534 393.873L312.937 392.006C312.477 391.768 312.107 391.406 311.862 390.963L316.497 391.817L320.451 394.162C320.304 394.502 320.173 394.848 320.056 395.197" fill="#BBB6E1"/>
<path d="M323.163 395.769L321.316 395.429C321.389 395.222 321.467 395.017 321.551 394.814L323.163 395.769Z" fill="#BBB6E1"/>
<path d="M316.356 394.448L310.482 390.965C310.471 390.933 310.46 390.901 310.45 390.868C310.432 390.81 310.415 390.752 310.399 390.693L311.863 390.963C312.108 391.406 312.478 391.768 312.938 392.006L316.535 393.873L316.377 394.379C316.37 394.402 316.363 394.425 316.356 394.448" fill="#C9C5E7"/>
<path d="M321.316 395.429L320.056 395.197C320.173 394.848 320.304 394.502 320.45 394.161L321.551 394.814C321.467 395.017 321.389 395.223 321.316 395.429Z" fill="#C9C5E7"/>
<path d="M361.629 366.94C361.39 365.625 361.155 364.313 360.946 363.002L361.409 360.491L362.168 359.212L363.627 360.687L362.856 364.87L361.629 366.94" fill="#C2BCE4"/>
<path d="M360.164 369.41C360.095 368.969 360.044 368.527 360.01 368.084L360.946 363.002C361.155 364.313 361.39 365.626 361.628 366.94L360.164 369.41Z" fill="#BBB6E1"/>
<path d="M359.586 370.387L360.01 368.084C360.045 368.527 360.096 368.969 360.165 369.41L359.586 370.387" fill="#C9C5E7"/>
<path d="M338.786 398.649L323.163 395.769L321.551 394.814L320.45 394.161L316.497 391.817L340.241 396.194L338.786 398.649V398.649ZM361.409 360.491L361.727 358.767L362.168 359.212L361.409 360.491ZM367.437 340.013L365.538 338.093L365.831 336.502L373.429 295.281L375.46 296.485L367.437 340.013" fill="#DF8AB2"/>
<path d="M354.348 398.794L272.788 383.76L293.104 273.543L374.665 288.577L354.348 398.794Z" fill="white"/>
<path d="M353.225 398.587C353.215 398.586 353.206 398.584 353.196 398.582L351.923 398.348C351.923 398.347 351.923 398.347 351.923 398.347L353.225 398.587" fill="#DEB6DC"/>
<path d="M350.634 398.11L346.77 397.398L350.634 398.11C350.634 398.11 350.634 398.11 350.634 398.11Z" fill="#DEB6DC"/>
<path d="M345.437 397.152L343.886 396.866H343.886L345.437 397.152C345.437 397.152 345.437 397.152 345.437 397.152" fill="#DEB6DC"/>
<path d="M351.923 398.348L350.635 398.11C350.635 398.109 350.635 398.109 350.635 398.109L351.923 398.347C351.923 398.347 351.923 398.347 351.923 398.348Z" fill="#E9C2DD"/>
<path d="M346.77 397.397L345.438 397.152C345.438 397.152 345.438 397.152 345.438 397.152L346.77 397.397" fill="#E9C2DD"/>
<path d="M354.558 397.664L354.719 396.788L354.562 397.641C354.561 397.648 354.56 397.656 354.558 397.664ZM355.958 390.069L356.275 388.351L355.958 390.069Z" fill="#DEB6DC"/>
<path d="M355 395.265L355.677 391.593L355.001 395.265H355Z" fill="#DEB6DC"/>
<path d="M356.597 386.6L359.353 371.646V371.646L356.597 386.6H356.597Z" fill="#DEB6DC"/>
<path d="M354.719 396.788L354.999 395.264H355L354.719 396.788ZM355.677 391.593L355.957 390.069L355.677 391.593Z" fill="#E9C2DD"/>
<path d="M356.274 388.351L356.597 386.599H356.598L356.274 388.351" fill="#E9C2DD"/>
<path d="M359.354 371.646V371.645L359.586 370.387L359.354 371.646" fill="#E9C2DD"/>
<path d="M309.854 390.593L302.5 389.238V389.237L309.854 390.593H309.854ZM301.233 389.004L285.243 386.057H285.244L301.233 389.003V389.004ZM278.37 384.79H278.369L277.005 384.538V384.537L278.37 384.79Z" fill="#DEB6DC"/>
<path d="M302.5 389.237L301.233 389.004V389.003L302.5 389.237V389.237ZM285.244 386.056H285.243L278.369 384.789H278.37L285.244 386.056Z" fill="#EBC5DD"/>
<path d="M343.886 396.866L340.242 396.195V396.194L343.887 396.866H343.886Z" fill="#D3AAD6"/>
<path d="M310.399 390.693L309.854 390.593H309.854L310.399 390.693C310.399 390.693 310.399 390.693 310.399 390.693Z" fill="#D3AAD6"/>
<path d="M316.497 391.817L311.862 390.963C311.862 390.963 311.862 390.963 311.862 390.963L316.497 391.817H316.497" fill="#D3AAD6"/>
<path d="M311.863 390.963L310.399 390.693C310.399 390.693 310.399 390.693 310.399 390.693L311.863 390.963C311.863 390.963 311.863 390.963 311.863 390.963Z" fill="#DAB3D5"/>
<path d="M360.946 363.002V363.001L361.409 360.491L360.946 363.002" fill="#D6AED6"/>
<path d="M360.01 368.084C360.01 368.084 360.01 368.084 360.01 368.084L360.946 363.002V363.002L360.01 368.084Z" fill="#D3AAD6"/>
<path d="M359.586 370.387L360.01 368.084C360.01 368.084 360.01 368.084 360.01 368.084L359.586 370.387Z" fill="#DAB3D5"/>
<path d="M340.242 396.194L316.498 391.817H316.497L340.242 396.194V396.194ZM361.41 360.491L361.727 358.767H361.728L361.41 360.491V360.491ZM365.539 338.093L365.832 336.502L365.539 338.093Z" fill="#E98EB3"/>
<path d="M353.41 398.602C353.349 398.602 353.287 398.597 353.225 398.587L351.923 398.347L350.635 398.11L346.77 397.398L345.438 397.152L343.887 396.866L340.242 396.194L316.497 391.817L311.863 390.963L310.399 390.693L309.854 390.593L302.5 389.237L301.233 389.003L285.244 386.057L278.37 384.79L277.005 384.538V360.888L278.321 353.748H293.46C296.252 353.748 298.842 352.767 300.969 351.096L317.838 354.206L317.954 354.216C318.253 354.216 318.52 354.003 318.576 353.698C318.64 353.353 318.412 353.023 318.068 352.959L302.171 350.029C303.287 348.915 304.232 347.59 304.957 346.11C308.29 346.855 311.754 347.248 315.308 347.248C320.813 347.248 326.17 346.32 331.221 344.517L351.29 348.216L361.727 358.767L361.41 360.492L360.947 363.002L360.01 368.084L359.586 370.387L359.353 371.646L356.597 386.6L356.274 388.351L355.958 390.069L355.677 391.593L355 395.265L354.719 396.788L354.558 397.664C354.445 398.217 353.957 398.602 353.41 398.602V398.602ZM349.732 346.641L333.478 343.645C336.879 342.227 340.127 340.401 343.17 338.184C343.141 338.676 343.314 339.179 343.69 339.555L345.893 341.758C346.55 340.657 348.351 338.602 350.363 336.526C348.351 338.602 346.55 340.657 345.893 341.758C345.656 342.154 345.565 342.429 345.669 342.533L349.732 346.641V346.641ZM365.539 338.093L357.8 330.271C357.773 330.243 357.734 330.23 357.684 330.23C357.511 330.23 357.205 330.385 356.8 330.66L354.693 328.552C354.346 328.205 353.892 328.032 353.439 328.032C353.434 328.032 353.429 328.032 353.425 328.032C356.525 323.855 358.881 319.282 360.446 314.447C360.475 314.392 360.496 314.332 360.508 314.269C360.509 314.26 360.511 314.252 360.512 314.243C361.821 310.135 362.562 305.836 362.707 301.431C362.828 301.339 362.916 301.203 362.946 301.042C362.988 300.81 362.899 300.584 362.73 300.442C362.732 300.236 362.734 300.029 362.734 299.822C362.734 295.017 362.015 290.375 360.679 286L373.512 288.365C374.149 288.482 374.57 289.094 374.453 289.731L365.832 336.502L365.539 338.093" fill="#FDE1EA"/>
<path d="M362.323 301.561L362.207 301.55L342.368 297.893C342.024 297.83 341.797 297.5 341.86 297.156C341.924 296.812 342.25 296.585 342.598 296.648L362.437 300.305C362.782 300.368 363.009 300.698 362.946 301.042C362.889 301.348 362.623 301.561 362.323 301.561" fill="white"/>
<path d="M361.154 307.898L361.039 307.888L341.199 304.231C340.855 304.168 340.628 303.837 340.691 303.493C340.755 303.15 341.082 302.922 341.43 302.985L361.269 306.642C361.613 306.705 361.84 307.036 361.777 307.38C361.72 307.685 361.454 307.898 361.154 307.898" fill="white"/>
<path d="M359.885 314.787L359.77 314.776L339.93 311.12C339.586 311.056 339.359 310.726 339.423 310.382C339.486 310.038 339.812 309.811 340.161 309.874L360 313.53C360.344 313.594 360.571 313.924 360.508 314.268C360.451 314.574 360.185 314.787 359.885 314.787" fill="white"/>
<path d="M327.942 318.522L295.538 312.549C294.848 312.422 294.392 311.76 294.519 311.07L300.899 276.462C301.026 275.772 301.688 275.315 302.378 275.443L334.782 281.416C335.472 281.543 335.928 282.205 335.801 282.895L329.421 317.504C329.294 318.193 328.632 318.649 327.942 318.522" fill="#6C92D3"/>
<path d="M310.061 296.94C309.816 296.94 309.567 296.918 309.316 296.872L308.833 296.782C306.268 296.31 304.564 293.837 305.037 291.27L306.256 284.657C306.351 284.141 306.85 283.798 307.362 283.895C307.879 283.99 308.22 284.485 308.125 285.002L306.906 291.615C306.623 293.151 307.642 294.63 309.178 294.913L309.661 295.003C310.855 295.224 312.004 294.431 312.224 293.236L315.31 276.497C315.537 275.265 314.72 274.078 313.488 273.851L312.661 273.699C311.349 273.457 310.094 274.326 309.852 275.633L309.776 276.047C309.68 276.563 309.179 276.904 308.669 276.809C308.153 276.714 307.812 276.218 307.907 275.702L307.983 275.289C308.415 272.95 310.669 271.398 313.005 271.83L313.832 271.982C316.095 272.399 317.596 274.579 317.18 276.841L314.094 293.581C313.73 295.555 312 296.94 310.061 296.94" fill="#3C419F"/>
<path d="M313.36 282.884L313.302 282.879L300.638 280.544C300.466 280.512 300.353 280.348 300.384 280.175C300.416 280.003 300.579 279.887 300.753 279.921L313.417 282.255C313.589 282.287 313.703 282.452 313.671 282.625C313.643 282.777 313.51 282.884 313.36 282.884" fill="white"/>
<path d="M352.084 348.352L351.968 348.341L291.349 337.167C291.005 337.104 290.777 336.774 290.841 336.429C290.905 336.086 291.23 335.856 291.579 335.921L352.198 347.095C352.542 347.158 352.77 347.489 352.706 347.833C352.65 348.138 352.384 348.352 352.084 348.352" fill="white"/>
<path d="M347.749 371.864L347.634 371.854L287.014 360.68C286.67 360.617 286.442 360.287 286.506 359.942C286.569 359.599 286.895 359.368 287.244 359.434L347.864 370.608C348.208 370.671 348.435 371.001 348.372 371.346C348.316 371.651 348.049 371.864 347.749 371.864Z" fill="white"/>
<path d="M317.953 354.216L317.837 354.206L289.181 348.923C288.837 348.86 288.609 348.53 288.673 348.185C288.737 347.842 289.062 347.61 289.411 347.677L318.068 352.959C318.412 353.023 318.639 353.353 318.575 353.697C318.519 354.003 318.253 354.216 317.953 354.216" fill="white"/>
<path d="M321.902 332.795L321.786 332.785L293.13 327.503C292.786 327.439 292.558 327.109 292.622 326.765C292.685 326.422 293.012 326.194 293.36 326.257L322.016 331.539C322.36 331.601 322.588 331.932 322.524 332.277C322.468 332.581 322.202 332.795 321.902 332.795Z" fill="white"/>
<path d="M349.934 360.016L349.818 360.005L322.515 354.973C322.171 354.909 321.943 354.579 322.007 354.234C322.07 353.891 322.396 353.662 322.745 353.726L350.048 358.76C350.392 358.823 350.62 359.153 350.556 359.498C350.5 359.803 350.234 360.016 349.934 360.016Z" fill="white"/>
<path d="M343.515 235.492H309.823C308.656 235.492 307.711 234.546 307.711 233.38V222.111C307.711 220.945 308.656 220 309.823 220H343.515C344.68 220 345.626 220.945 345.626 222.111V233.38C345.626 234.546 344.68 235.492 343.515 235.492Z" fill="#0169EE"/>
<path d="M368.896 252.378H321.767C320.601 252.378 319.655 251.433 319.655 250.266V233.507C319.655 232.342 320.601 231.396 321.767 231.396H368.896C370.062 231.396 371.007 232.342 371.007 233.507V250.266C371.007 251.433 370.062 252.378 368.896 252.378" fill="#F795B4"/>
<path d="M332.206 247.943H384.393C385.97 247.943 387.26 249.233 387.26 250.81V266.796C387.26 268.373 385.97 269.663 384.393 269.663H332.206C330.629 269.663 329.339 268.373 329.339 266.796V250.81C329.339 249.233 330.629 247.943 332.206 247.943" fill="white"/>
<path d="M384.393 269.663H351.883C346.067 262.624 338.262 257.284 329.339 254.515V250.81C329.339 249.233 330.629 247.943 332.206 247.943H384.393C385.97 247.943 387.26 249.233 387.26 250.81V266.796C387.26 268.373 385.97 269.663 384.393 269.663Z" fill="#0169EE"/>
<path d="M368.874 256.948C367.835 256.948 366.991 257.793 366.991 258.831C366.991 259.869 367.835 260.713 368.874 260.713C369.912 260.713 370.757 259.869 370.757 258.831C370.757 257.793 369.912 256.948 368.874 256.948ZM368.874 261.347C367.486 261.347 366.357 260.218 366.357 258.831C366.357 257.443 367.486 256.314 368.874 256.314C370.261 256.314 371.39 257.443 371.39 258.831C371.39 260.218 370.261 261.347 368.874 261.347Z" fill="white"/>
<path d="M358.492 256.948C357.455 256.948 356.61 257.793 356.61 258.831C356.61 259.869 357.455 260.713 358.492 260.713C359.531 260.713 360.375 259.869 360.375 258.831C360.375 257.793 359.531 256.948 358.492 256.948ZM358.492 261.347C357.105 261.347 355.977 260.218 355.977 258.831C355.977 257.443 357.105 256.314 358.492 256.314C359.88 256.314 361.009 257.443 361.009 258.831C361.009 260.218 359.88 261.347 358.492 261.347Z" fill="white"/>
<path d="M348.815 256.948C347.777 256.948 346.932 257.793 346.932 258.831C346.932 259.869 347.777 260.713 348.815 260.713C349.853 260.713 350.697 259.869 350.697 258.831C350.697 257.793 349.853 256.948 348.815 256.948ZM348.815 261.347C347.427 261.347 346.299 260.218 346.299 258.831C346.299 257.443 347.427 256.314 348.815 256.314C350.203 256.314 351.331 257.443 351.331 258.831C351.331 260.218 350.203 261.347 348.815 261.347Z" fill="white"/>
<path d="M205.25 221.517H286.116C287.745 221.517 289.065 222.838 289.065 224.467V343.574C289.065 349.193 284.511 353.748 278.892 353.748H222.743C210.77 353.748 201.064 344.042 201.064 332.069V225.704C201.064 223.392 202.938 221.517 205.25 221.517" fill="white"/>
<path d="M201.064 225.704V222.547C201.064 221.978 201.525 221.517 202.093 221.517H205.25C202.938 221.517 201.064 223.392 201.064 225.704Z" fill="#BAB0DE"/>
<path d="M208.88 331.029C207.678 329.051 205.502 327.729 203.017 327.729H201.064V225.704C201.064 223.392 202.938 221.517 205.25 221.517H286.116H209.579C209.193 221.517 208.88 221.83 208.88 222.216V331.029Z" fill="#CBC2E6"/>
<path d="M289.065 260.336V223.099C289.065 222.225 288.357 221.517 287.483 221.517H287.815C288.505 221.517 289.065 222.077 289.065 222.768V260.336Z" fill="#A6A2D8"/>
<path d="M289.064 260.336V224.466C289.064 222.838 287.744 221.517 286.115 221.517H287.483C288.357 221.517 289.064 222.225 289.064 223.099V260.336Z" fill="#8883C9"/>
<path d="M233.39 345.898H216.705C212.932 345.898 209.873 342.839 209.873 339.066V334.585C209.873 333.284 209.51 332.067 208.88 331.029V222.216C208.88 221.83 209.193 221.517 209.579 221.517H286.116C287.745 221.517 289.065 222.838 289.065 224.466V260.336C280.8 265.847 274.357 273.879 270.841 283.327H239.11C238.761 283.327 238.477 283.61 238.477 283.96C238.477 284.31 238.761 284.594 239.11 284.594H270.39C269.207 288.072 268.418 291.73 268.076 295.516H223.937C223.586 295.516 223.303 295.8 223.303 296.149C223.303 296.499 223.586 296.783 223.937 296.783H267.979C267.915 297.788 267.883 298.801 267.883 299.822C267.883 312.939 273.234 324.828 281.87 333.422H235.092V339.018C235.092 341.503 234.477 343.844 233.39 345.898" fill="#0169EE"/>
<path d="M221.161 353.725V353.748H291.844C299.979 353.748 306.574 347.153 306.574 339.018V333.422H235.092V339.018C235.092 346.884 228.925 353.31 221.161 353.725" fill="#5E56B0"/>
<path d="M293.459 353.748H278.32H291.843C295.043 353.748 298.004 352.728 300.42 350.995L300.969 351.096C298.841 352.767 296.252 353.748 293.459 353.748V353.748ZM302.17 350.029L301.72 349.946C302.945 348.839 303.981 347.53 304.779 346.07C304.837 346.084 304.898 346.097 304.956 346.11C304.231 347.59 303.286 348.915 302.17 350.029" fill="#C9ADD2"/>
<path d="M300.969 351.096L300.42 350.995C300.874 350.67 301.308 350.319 301.72 349.946L302.17 350.029C301.789 350.41 301.387 350.767 300.969 351.096" fill="#CCCBE6"/>
<path d="M291.843 353.748H277.005V352.285C277.005 348.758 274.146 345.898 270.619 345.898H241.419C242.386 343.844 242.934 341.503 242.934 339.018V333.422H281.87C288.069 339.592 295.961 344.064 304.779 346.07C303.981 347.53 302.945 348.839 301.72 349.946C301.308 350.319 300.874 350.67 300.42 350.995C298.005 352.728 295.043 353.748 291.843 353.748Z" fill="#5450AC"/>
<path d="M275.708 318.181H224.886C224.537 318.181 224.253 317.897 224.253 317.548C224.253 317.198 224.537 316.914 224.886 316.914H275.708C276.059 316.914 276.342 317.198 276.342 317.548C276.342 317.897 276.059 318.181 275.708 318.181Z" fill="white"/>
<path d="M276.774 296.783H223.936C223.586 296.783 223.303 296.499 223.303 296.149C223.303 295.799 223.586 295.516 223.936 295.516H276.774C277.124 295.516 277.407 295.799 277.407 296.149C277.407 296.499 277.124 296.783 276.774 296.783Z" fill="white"/>
<path d="M250.296 307.473H223.298C222.948 307.473 222.664 307.189 222.664 306.839C222.664 306.489 222.948 306.206 223.298 306.206H250.296C250.647 306.206 250.93 306.489 250.93 306.839C250.93 307.189 250.647 307.473 250.296 307.473Z" fill="white"/>
<path d="M248.252 307.473H225.343C224.993 307.473 224.71 307.189 224.71 306.839C224.71 306.489 224.993 306.206 225.343 306.206H248.252C248.601 306.206 248.885 306.489 248.885 306.839C248.885 307.189 248.601 307.473 248.252 307.473Z" fill="white"/>
<path d="M259.086 273.903H224.304C223.954 273.903 223.671 273.619 223.671 273.27C223.671 272.92 223.954 272.636 224.304 272.636H259.086C259.436 272.636 259.72 272.92 259.72 273.27C259.72 273.619 259.436 273.903 259.086 273.903Z" fill="white"/>
<path d="M275.21 273.903H264.615C264.265 273.903 263.981 273.619 263.981 273.27C263.981 272.92 264.265 272.636 264.615 272.636H275.21C275.56 272.636 275.843 272.92 275.843 273.27C275.843 273.619 275.56 273.903 275.21 273.903Z" fill="white"/>
<path d="M276.774 284.594H239.11C238.76 284.594 238.477 284.31 238.477 283.96C238.477 283.61 238.76 283.327 239.11 283.327H276.774C277.124 283.327 277.407 283.61 277.407 283.96C277.407 284.31 277.124 284.594 276.774 284.594Z" fill="white"/>
<path d="M235.39 284.594H223.936C223.586 284.594 223.303 284.31 223.303 283.96C223.303 283.61 223.586 283.327 223.936 283.327H235.39C235.74 283.327 236.024 283.61 236.024 283.96C236.024 284.31 235.74 284.594 235.39 284.594Z" fill="white"/>
<path d="M275.708 264.852H224.886C224.537 264.852 224.253 264.568 224.253 264.219C224.253 263.868 224.537 263.585 224.886 263.585H275.708C276.059 263.585 276.342 263.868 276.342 264.219C276.342 264.568 276.059 264.852 275.708 264.852Z" fill="white"/>
<path d="M275.708 243.454H224.886C224.537 243.454 224.253 243.17 224.253 242.82C224.253 242.47 224.537 242.187 224.886 242.187H275.708C276.059 242.187 276.342 242.47 276.342 242.82C276.342 243.17 276.059 243.454 275.708 243.454Z" fill="white"/>
<path d="M243.539 254.144H224.304C223.954 254.144 223.671 253.86 223.671 253.511C223.671 253.16 223.954 252.877 224.304 252.877H243.539C243.889 252.877 244.173 253.16 244.173 253.511C244.173 253.86 243.889 254.144 243.539 254.144Z" fill="white"/>
<path d="M275.321 254.144H252.413C252.063 254.144 251.779 253.86 251.779 253.511C251.779 253.16 252.063 252.877 252.413 252.877H275.321C275.671 252.877 275.954 253.16 275.954 253.511C275.954 253.86 275.671 254.144 275.321 254.144Z" fill="white"/>
<path d="M289.064 295.46V287.512C289.707 286.046 290.457 284.64 291.306 283.3L289.064 295.46ZM349.225 280.93L322.812 265.271C322.624 265.159 322.418 265.107 322.215 265.107C321.815 265.107 321.424 265.312 321.205 265.681L316.472 273.664C315.864 272.812 314.939 272.186 313.832 271.982L313.005 271.83C312.742 271.781 312.48 271.757 312.222 271.757C310.184 271.757 308.366 273.213 307.983 275.289L307.906 275.702C307.868 275.908 307.9 276.111 307.984 276.286L299.335 274.691C304.575 270.834 311.044 268.553 318.036 268.553C319.436 268.553 320.57 267.418 320.57 266.019C320.57 264.619 319.436 263.485 318.036 263.485C306.271 263.485 295.782 269.052 289.064 277.689V271.226C295.981 264.873 305.199 260.991 315.307 260.991C320.253 260.991 324.984 261.92 329.338 263.613V266.796C329.338 268.373 330.628 269.663 332.205 269.663H339.741C343.572 272.772 346.803 276.598 349.225 280.93V280.93ZM314.234 277.438L309.493 276.564C309.635 276.43 309.737 276.252 309.776 276.046L309.851 275.633C310.066 274.473 311.079 273.658 312.222 273.658C312.367 273.658 312.514 273.671 312.661 273.699L313.488 273.851C314.426 274.024 315.124 274.753 315.303 275.636L314.234 277.438" fill="#EDE9F6"/>
<path d="M350.851 284.188L316.976 277.943L317.18 276.841C317.393 275.686 317.105 274.553 316.472 273.664L321.205 265.681C321.424 265.312 321.815 265.107 322.215 265.107C322.418 265.107 322.624 265.159 322.812 265.271L349.225 280.93C349.816 281.987 350.359 283.074 350.851 284.188V284.188ZM315.107 277.599L314.234 277.438L315.303 275.636C315.359 275.912 315.365 276.203 315.31 276.497L315.107 277.599Z" fill="#F9ACC4"/>
<path d="M350.851 284.188L316.976 277.944V277.943L350.851 284.187V284.188ZM315.107 277.599L309.493 276.564L314.234 277.438L315.107 277.599V277.599V277.599ZM307.985 276.286L299.334 274.692L299.335 274.691L307.984 276.286C307.984 276.286 307.985 276.286 307.985 276.286" fill="white"/>
<path d="M289.064 295.46L291.306 283.3V283.3L289.064 295.46Z" fill="#F2D2EB"/>
<path d="M315.307 338.653C312.306 338.653 309.381 338.311 306.574 337.663V333.422H295.859C293.413 332.001 291.135 330.321 289.064 328.419V295.46L291.306 283.3C293.424 279.956 296.154 277.033 299.334 274.692L307.985 276.287C307.998 276.313 308.012 276.339 308.026 276.363L302.399 275.326C302.321 275.312 302.243 275.305 302.167 275.305C301.566 275.305 301.033 275.733 300.919 276.345L294.776 309.669L294.519 311.07C294.518 311.072 294.518 311.074 294.517 311.076L294.181 312.9C294.054 313.589 294.51 314.251 295.2 314.379L329.191 320.645C329.269 320.658 329.347 320.665 329.423 320.665C330.023 320.665 330.557 320.237 330.67 319.626L337.408 283.071C337.535 282.381 337.079 281.719 336.39 281.592L316.964 278.011L316.976 277.944L350.851 284.188C352.831 288.672 353.986 293.598 354.124 298.772L342.598 296.648C342.559 296.641 342.52 296.637 342.482 296.637C342.18 296.637 341.917 296.851 341.86 297.156C341.796 297.5 342.024 297.83 342.368 297.894L354.138 300.063C354.127 301.823 353.998 303.56 353.759 305.258L341.43 302.985C341.391 302.978 341.352 302.975 341.314 302.975C341.012 302.975 340.748 303.189 340.691 303.493C340.628 303.837 340.856 304.167 341.2 304.231L353.562 306.51C353.229 308.419 352.756 310.282 352.155 312.085L340.161 309.874C340.121 309.867 340.083 309.864 340.045 309.864C339.742 309.864 339.478 310.076 339.422 310.382C339.358 310.726 339.586 311.057 339.93 311.12L351.728 313.295C346.24 328.085 331.984 338.653 315.307 338.653ZM293.245 326.247C292.942 326.247 292.678 326.46 292.622 326.765C292.558 327.109 292.785 327.439 293.129 327.503L321.786 332.785L321.901 332.795C322.202 332.795 322.468 332.582 322.524 332.277C322.587 331.932 322.36 331.602 322.016 331.539L293.36 326.257C293.321 326.25 293.283 326.247 293.245 326.247ZM315.095 277.667L309.426 276.622C309.449 276.604 309.471 276.585 309.493 276.564L315.107 277.599L315.095 277.667" fill="#FDE1EA"/>
<path d="M354.138 300.063L342.368 297.894C342.024 297.83 341.797 297.5 341.86 297.156C341.917 296.851 342.18 296.637 342.482 296.637C342.52 296.637 342.56 296.641 342.598 296.648L354.125 298.772C354.134 299.122 354.139 299.47 354.139 299.822C354.139 299.903 354.139 299.982 354.138 300.063" fill="white"/>
<path d="M353.562 306.51L341.199 304.231C340.855 304.168 340.628 303.838 340.691 303.494C340.748 303.189 341.012 302.975 341.314 302.975C341.352 302.975 341.391 302.978 341.43 302.985L353.759 305.258C353.7 305.679 353.634 306.094 353.562 306.51" fill="white"/>
<path d="M351.729 313.295L339.93 311.12C339.586 311.057 339.359 310.726 339.423 310.382C339.479 310.077 339.742 309.864 340.045 309.864C340.083 309.864 340.122 309.867 340.161 309.874L352.155 312.085C352.02 312.492 351.878 312.894 351.729 313.295Z" fill="white"/>
<path d="M329.423 320.666C329.347 320.666 329.269 320.659 329.191 320.645L295.201 314.379C294.511 314.252 294.055 313.59 294.181 312.9L294.518 311.076C294.394 311.763 294.85 312.423 295.538 312.549L327.942 318.522C328.02 318.537 328.097 318.544 328.174 318.544C328.774 318.544 329.308 318.116 329.421 317.504L335.199 286.161L335.601 283.979L335.801 282.895C335.801 282.893 335.802 282.891 335.802 282.889L335.815 282.815C335.935 282.169 335.508 281.55 334.862 281.431L316.943 278.128L316.965 278.011L336.39 281.592C337.079 281.719 337.536 282.381 337.408 283.071L330.67 319.626C330.558 320.237 330.024 320.666 329.423 320.666V320.666ZM294.777 309.669L300.92 276.345C301.033 275.733 301.566 275.305 302.168 275.305C302.244 275.305 302.321 275.312 302.399 275.326L308.027 276.364C308.056 276.413 308.091 276.46 308.129 276.503L302.341 275.436C302.265 275.422 302.19 275.416 302.116 275.416C301.533 275.416 301.015 275.831 300.906 276.425L300.826 276.858L294.777 309.669V309.669ZM315.073 277.783L309.282 276.716C309.332 276.689 309.381 276.657 309.427 276.622L315.095 277.667L315.073 277.783" fill="#EAD0E4"/>
<path d="M328.173 318.543C328.097 318.543 328.019 318.536 327.941 318.522L295.537 312.549C294.849 312.422 294.394 311.763 294.517 311.075C294.518 311.073 294.518 311.072 294.519 311.07L294.776 309.669L300.825 276.857L300.296 279.727L314.241 282.298L312.224 293.236C312.029 294.295 311.103 295.04 310.063 295.04C309.93 295.04 309.796 295.027 309.661 295.002L309.177 294.913C307.642 294.63 306.623 293.151 306.906 291.615L308.125 285.001C308.22 284.485 307.879 283.99 307.362 283.895C307.304 283.884 307.246 283.879 307.189 283.879C306.742 283.879 306.34 284.199 306.255 284.657L305.037 291.27C304.564 293.837 306.268 296.309 308.833 296.782L309.316 296.871C309.566 296.918 309.815 296.94 310.061 296.94C312 296.94 313.729 295.555 314.094 293.581L316.11 282.642L335.199 286.16L329.421 317.504C329.308 318.115 328.774 318.543 328.173 318.543V318.543ZM300.692 279.915C300.542 279.915 300.412 280.023 300.384 280.175C300.352 280.347 300.466 280.512 300.638 280.544L313.302 282.878L313.36 282.884C313.509 282.884 313.643 282.777 313.671 282.624C313.703 282.452 313.589 282.287 313.417 282.255L300.753 279.921C300.732 279.917 300.711 279.915 300.692 279.915V279.915ZM335.6 283.979L335.802 282.889C335.801 282.89 335.8 282.892 335.8 282.895L335.6 283.979Z" fill="#89ADE0"/>
<path d="M335.199 286.16L335.601 283.979L335.199 286.16ZM335.803 282.889C335.925 282.201 335.47 281.542 334.782 281.416L316.943 278.128L334.862 281.43C335.508 281.549 335.935 282.169 335.816 282.814L335.803 282.889Z" fill="#EAD4E6"/>
<path d="M335.199 286.16L316.11 282.642L316.943 278.128L334.781 281.416C335.469 281.542 335.925 282.201 335.802 282.889L335.601 283.979L335.199 286.16" fill="#90B3E3"/>
<path d="M315.074 277.783L309.281 276.716H309.282L315.074 277.783V277.783ZM300.826 276.858L300.906 276.425C301.015 275.831 301.533 275.416 302.116 275.416C302.19 275.416 302.266 275.422 302.341 275.436L308.129 276.503L302.378 275.443C302.3 275.428 302.222 275.421 302.146 275.421C301.546 275.421 301.012 275.85 300.899 276.462L300.826 276.858" fill="#EAD4E6"/>
<path d="M314.241 282.298L300.297 279.728L300.826 276.858L300.899 276.462C301.012 275.85 301.546 275.421 302.146 275.421C302.222 275.421 302.299 275.428 302.377 275.443L308.129 276.503C308.265 276.657 308.452 276.769 308.67 276.809C308.727 276.82 308.784 276.825 308.841 276.825C308.997 276.825 309.147 276.786 309.281 276.716L315.074 277.783L314.241 282.298Z" fill="#90B3E3"/>
<path d="M310.061 296.94C309.816 296.94 309.567 296.918 309.316 296.872L308.833 296.782C306.268 296.31 304.564 293.837 305.037 291.27L306.256 284.657C306.34 284.2 306.742 283.879 307.189 283.879C307.247 283.879 307.304 283.884 307.362 283.895C307.879 283.99 308.22 284.485 308.125 285.002L306.906 291.615C306.623 293.151 307.642 294.63 309.178 294.913L309.661 295.003C309.796 295.027 309.93 295.04 310.063 295.04C311.103 295.04 312.029 294.296 312.224 293.236L314.241 282.298L315.073 277.783L315.095 277.666L315.107 277.599V277.599L315.31 276.497C315.365 276.203 315.359 275.912 315.303 275.636C315.124 274.753 314.426 274.024 313.488 273.851L312.661 273.699C312.514 273.671 312.367 273.658 312.222 273.658C311.079 273.658 310.066 274.473 309.852 275.633L309.776 276.047C309.738 276.252 309.635 276.43 309.493 276.564C309.472 276.584 309.449 276.603 309.427 276.622C309.381 276.657 309.332 276.688 309.281 276.716H309.281C309.147 276.786 308.996 276.824 308.841 276.824C308.784 276.824 308.726 276.819 308.669 276.809C308.452 276.769 308.265 276.657 308.128 276.503C308.09 276.46 308.056 276.413 308.026 276.363C308.012 276.339 307.998 276.313 307.985 276.287C307.985 276.286 307.985 276.286 307.985 276.286C307.9 276.111 307.869 275.908 307.907 275.702L307.983 275.289C308.366 273.213 310.184 271.757 312.222 271.757C312.48 271.757 312.742 271.781 313.005 271.83L313.832 271.982C314.94 272.186 315.865 272.812 316.472 273.664C317.105 274.553 317.393 275.686 317.18 276.841L316.976 277.943V277.944L316.964 278.011L316.943 278.128L316.11 282.642L314.094 293.581C313.73 295.555 312 296.94 310.061 296.94" fill="#6465B6"/>
<path d="M313.36 282.884L313.302 282.879L300.638 280.544C300.466 280.512 300.353 280.348 300.384 280.175C300.412 280.023 300.542 279.915 300.692 279.915C300.712 279.915 300.733 279.917 300.753 279.921L313.417 282.255C313.589 282.287 313.703 282.452 313.671 282.625C313.643 282.777 313.51 282.884 313.36 282.884" fill="white"/>
<path d="M321.902 332.795L321.786 332.785L293.13 327.503C292.786 327.439 292.558 327.109 292.622 326.765C292.678 326.46 292.943 326.247 293.245 326.247C293.283 326.247 293.321 326.25 293.36 326.257L322.016 331.539C322.36 331.601 322.588 331.932 322.524 332.277C322.468 332.581 322.202 332.795 321.902 332.795Z" fill="white"/>
<path d="M339.742 269.663H332.206C330.629 269.663 329.339 268.373 329.339 266.796V263.613C333.13 265.088 336.633 267.14 339.742 269.663Z" fill="#AEA3D9"/>
<path d="M289.064 328.418C281.331 321.316 276.477 311.125 276.477 299.822C276.477 298.799 276.516 297.786 276.594 296.783H276.774C277.124 296.783 277.407 296.499 277.407 296.149C277.407 295.799 277.124 295.516 276.774 295.516H276.714C277.775 285.947 282.327 277.414 289.064 271.226V277.689C284.232 283.903 281.351 291.706 281.351 300.17C281.351 301.569 282.486 302.704 283.885 302.704C285.285 302.704 286.42 301.569 286.42 300.17C286.42 295.672 287.364 291.389 289.064 287.512V328.418Z" fill="#ACA6DA"/>
<path d="M306.574 337.663C302.757 336.782 299.156 335.338 295.859 333.422H306.574V337.663Z" fill="#7974C1"/>
<path d="M276.774 296.783H276.595C276.628 296.358 276.668 295.936 276.714 295.516H276.774C277.124 295.516 277.408 295.799 277.408 296.149C277.408 296.499 277.124 296.783 276.774 296.783Z" fill="white"/>
<path d="M289.064 287.512V277.689C295.782 269.052 306.271 263.485 318.036 263.485C319.436 263.485 320.57 264.619 320.57 266.019C320.57 267.418 319.436 268.553 318.036 268.553C311.044 268.553 304.575 270.834 299.335 274.691L293.105 273.543L292.895 274.677C292.894 274.684 292.893 274.69 292.892 274.697L291.306 283.3C290.457 284.64 289.707 286.046 289.064 287.512" fill="#F4F4F4"/>
<path d="M299.334 274.692L294.258 273.756C294.186 273.743 294.114 273.737 294.044 273.737C293.495 273.737 293.008 274.122 292.896 274.677L293.105 273.543L299.335 274.691L299.334 274.692Z" fill="white"/>
<path d="M291.306 283.3L292.891 274.697C292.893 274.69 292.894 274.684 292.895 274.677L291.306 283.3V283.3Z" fill="#FCF8FC"/>
<path d="M291.306 283.3L292.895 274.677C293.007 274.122 293.495 273.737 294.044 273.737C294.114 273.737 294.186 273.743 294.258 273.756L299.334 274.692C296.154 277.033 293.424 279.955 291.306 283.3" fill="#F4F4F4"/>
<path d="M283.886 302.704C282.487 302.704 281.352 301.569 281.352 300.17C281.352 291.707 284.232 283.903 289.065 277.69V287.513C287.364 291.39 286.42 295.672 286.42 300.17C286.42 301.569 285.285 302.704 283.886 302.704Z" fill="#F4F4F4"/>
<path d="M350.286 281.56L349.225 280.93C346.803 276.598 343.572 272.772 339.741 269.663H340.734C344.638 272.959 347.895 276.998 350.286 281.56" fill="#8584CA"/>
<path d="M351.603 284.326L350.851 284.187C350.36 283.074 349.817 281.987 349.226 280.93L350.287 281.56C350.76 282.462 351.199 283.384 351.603 284.326Z" fill="#886CB2"/>
<path d="M351.602 284.326L350.851 284.188V284.187L351.602 284.326Z" fill="#8F8ECB"/>
<path d="M315.308 339.286C312.308 339.286 309.385 338.95 306.574 338.312V337.662C309.382 338.31 312.306 338.653 315.308 338.653C331.985 338.653 346.241 328.085 351.729 313.295L352.362 313.411C346.812 328.498 332.296 339.286 315.308 339.286ZM352.784 312.2L352.155 312.085C352.757 310.281 353.23 308.418 353.562 306.509L354.186 306.625C353.853 308.534 353.383 310.396 352.784 312.2V312.2ZM354.384 305.372L353.76 305.258C353.999 303.56 354.128 301.823 354.138 300.063L354.771 300.18C354.755 301.94 354.624 303.674 354.384 305.372V305.372ZM354.762 298.889L354.125 298.772C353.987 293.597 352.832 288.672 350.852 284.188L351.603 284.326C353.527 288.815 354.641 293.733 354.762 298.889Z" fill="#8C80C1"/>
<path d="M354.771 300.18L354.138 300.063C354.139 299.982 354.139 299.903 354.139 299.822C354.139 299.47 354.135 299.122 354.125 298.772L354.762 298.889C354.769 299.2 354.772 299.51 354.772 299.822C354.772 299.941 354.772 300.06 354.771 300.18" fill="#8F8ECB"/>
<path d="M354.186 306.625L353.562 306.51C353.635 306.094 353.701 305.678 353.76 305.258L354.384 305.372C354.324 305.793 354.258 306.209 354.186 306.625" fill="#8F8ECB"/>
<path d="M352.361 313.411L351.729 313.295C351.877 312.894 352.019 312.491 352.155 312.085L352.784 312.201C352.65 312.606 352.508 313.011 352.361 313.411Z" fill="#8F8ECB"/>
<path d="M289.064 271.226V270.372C296.044 264.146 305.241 260.358 315.307 260.358C320.247 260.358 324.977 261.27 329.338 262.934V263.613C324.984 261.921 320.253 260.991 315.307 260.991C305.199 260.991 295.981 264.874 289.064 271.226Z" fill="#8584CA"/>
<path d="M340.734 269.663H339.742C336.633 267.14 333.13 265.088 329.339 263.613V262.934C333.523 264.531 337.369 266.822 340.734 269.663" fill="#6966BA"/>
<path d="M295.859 333.422H294.627C292.65 332.202 290.79 330.812 289.064 329.273V328.419C291.135 330.321 293.413 332.001 295.859 333.422Z" fill="#8C80C1"/>
<path d="M289.065 329.272C280.957 322.04 275.844 311.517 275.844 299.822C275.844 298.799 275.883 297.786 275.96 296.783H276.595C276.517 297.786 276.477 298.799 276.477 299.822C276.477 311.125 281.332 321.316 289.065 328.418V329.272Z" fill="#6868BA"/>
<path d="M276.714 295.516H276.077C277.162 285.559 281.965 276.705 289.065 270.372V271.226C282.328 277.414 277.775 285.947 276.714 295.516Z" fill="#6868BA"/>
<path d="M306.575 338.312C302.287 337.34 298.263 335.667 294.628 333.422H295.86C299.157 335.338 302.758 336.782 306.575 337.662V338.312" fill="#5454AE"/>
<path d="M276.595 296.783H275.96C275.992 296.36 276.032 295.935 276.078 295.516H276.715C276.668 295.936 276.628 296.358 276.595 296.783Z" fill="#8F8ECB"/>
<path d="M315.307 339.92C293.162 339.92 275.21 321.967 275.21 299.822C275.21 277.676 293.162 259.725 315.307 259.725C337.453 259.725 355.405 277.676 355.405 299.822C355.405 321.967 337.453 339.92 315.307 339.92ZM352.164 328.552C352.222 328.493 352.288 328.446 352.354 328.397C358.46 320.492 362.1 310.584 362.1 299.822C362.1 273.98 341.15 253.03 315.307 253.03C289.465 253.03 268.516 273.98 268.516 299.822C268.516 325.664 289.465 346.614 315.307 346.614C326.024 346.614 335.889 342.998 343.779 336.937L349.192 331.523L352.164 328.552" fill="#3C419F"/>
<path d="M315.308 260.358C293.547 260.358 275.844 278.061 275.844 299.822C275.844 321.583 293.547 339.286 315.308 339.286C337.069 339.286 354.773 321.583 354.773 299.822C354.773 278.061 337.069 260.358 315.308 260.358ZM315.308 340.553C292.849 340.553 274.577 322.282 274.577 299.822C274.577 277.363 292.849 259.091 315.308 259.091C337.768 259.091 356.04 277.363 356.04 299.822C356.04 322.282 337.768 340.553 315.308 340.553V340.553ZM315.308 253.664C289.856 253.664 269.15 274.37 269.15 299.822C269.15 325.274 289.856 345.981 315.308 345.981C325.54 345.981 335.239 342.688 343.36 336.46L351.716 328.104C351.776 328.044 351.839 327.992 351.904 327.943C358.161 319.814 361.467 310.092 361.467 299.822C361.467 274.37 340.76 253.664 315.308 253.664ZM315.308 347.248C289.158 347.248 267.883 325.973 267.883 299.822C267.883 273.672 289.158 252.397 315.308 252.397C341.459 252.397 362.734 273.672 362.734 299.822C362.734 310.403 359.318 320.418 352.855 328.784L352.736 328.902C352.674 328.949 352.641 328.97 352.613 328.999L344.165 337.439C335.813 343.856 325.834 347.248 315.308 347.248" fill="#0169EE"/>
<path d="M351.007 335.868L349.192 334.054C348.493 333.355 348.493 332.222 349.192 331.524L343.779 336.937L343.69 337.025C342.991 337.723 342.991 338.857 343.69 339.555L345.893 341.758C346.62 340.54 348.744 338.156 351.007 335.868" fill="#4E5DB3"/>
<path d="M349.192 331.523C348.493 332.222 348.493 333.355 349.192 334.054L351.007 335.868C353.196 333.655 355.506 331.54 356.802 330.661L354.693 328.552C354.054 327.912 353.055 327.865 352.354 328.397C352.289 328.446 352.223 328.493 352.164 328.552L349.192 331.523" fill="#4E5DB3"/>
<path d="M351.006 335.868L349.192 334.054C348.842 333.704 348.668 333.247 348.668 332.789C348.668 332.331 348.842 331.873 349.192 331.524L352.164 328.552C352.223 328.493 352.289 328.446 352.354 328.397C352.674 328.154 353.056 328.032 353.439 328.032C353.892 328.032 354.346 328.204 354.693 328.552L356.8 330.659C355.503 331.541 353.191 333.658 351.006 335.868" fill="#4750AB"/>
<path d="M390.751 363.58L357.799 330.27C357.681 330.15 357.32 330.309 356.802 330.661C355.505 331.54 353.196 333.655 351.007 335.868C348.744 338.156 346.619 340.54 345.893 341.758C345.656 342.153 345.565 342.428 345.668 342.533L378.62 375.843C381.97 379.23 387.401 379.23 390.751 375.843C394.101 372.457 394.101 366.967 390.751 363.58" fill="#6C92D3"/>
<path d="M350.363 336.526C350.576 336.307 350.791 336.087 351.008 335.868C353.196 333.655 355.506 331.54 356.803 330.661L356.801 330.659C357.205 330.384 357.511 330.23 357.684 330.23C357.734 330.23 357.774 330.243 357.8 330.27C357.774 330.244 357.736 330.23 357.686 330.23C357.513 330.23 357.205 330.388 356.803 330.661C355.506 331.54 353.196 333.655 351.008 335.868C350.791 336.087 350.576 336.307 350.363 336.526" fill="#E4C3DC"/>
<path d="M350.363 336.526C350.368 336.52 350.373 336.515 350.378 336.509C350.586 336.295 350.796 336.081 351.007 335.868L351.008 335.868C350.791 336.087 350.576 336.307 350.363 336.526Z" fill="#4C59B1"/>
<path d="M351.007 335.868L351.007 335.868C353.192 333.658 355.503 331.54 356.801 330.659L356.802 330.661C355.506 331.54 353.196 333.655 351.007 335.868" fill="#454EAA"/>
<path d="M390.168 376.047C384.247 376.044 347.885 339.364 350.363 336.526C350.576 336.307 350.791 336.087 351.007 335.868C353.196 333.655 355.506 331.54 356.802 330.661C357.205 330.388 357.513 330.231 357.686 330.231C357.736 330.231 357.774 330.244 357.8 330.27L390.752 363.58C392.427 365.273 393.264 367.493 393.264 369.712C393.264 371.931 392.427 374.151 390.752 375.843C390.616 375.981 390.42 376.047 390.168 376.047" fill="#6386CD"/>
<path d="M271.665 317.496C271.503 317.496 271.341 317.434 271.217 317.31L267.241 313.334C266.994 313.087 266.994 312.686 267.241 312.438C267.489 312.19 267.89 312.191 268.137 312.438L272.113 316.414C272.36 316.662 272.36 317.063 272.113 317.31C271.989 317.434 271.827 317.496 271.665 317.496" fill="white"/>
<path d="M265.628 346.029H211.714C207.941 346.029 204.882 342.971 204.882 339.197V334.717C204.882 330.93 201.813 327.86 198.026 327.86H173.123C169.337 327.86 166.267 330.93 166.267 334.717V352.416V372.763V405.883C166.267 409.411 169.126 412.27 172.653 412.27H265.628C269.155 412.27 272.014 409.411 272.014 405.883V352.416C272.014 348.889 269.155 346.029 265.628 346.029Z" fill="#F26690"/>
<path d="M262.302 412.27H248.627C251.668 412.27 254.134 409.411 254.134 405.883V352.416C254.134 348.889 251.668 346.029 248.627 346.029H202.133C198.879 346.029 196.242 342.971 196.242 339.197V334.717C196.242 330.93 193.594 327.86 190.328 327.86H169.797H194.699C198.486 327.86 201.556 330.93 201.556 334.717V339.197C201.556 342.971 204.614 346.029 208.388 346.029H262.302C265.829 346.029 268.688 348.889 268.688 352.416V405.883C268.688 409.411 265.829 412.27 262.302 412.27" fill="#F5799E"/>
<path d="M253.571 412.437H169.695C165.965 412.437 162.94 409.573 162.94 406.038V372.852V352.464V334.73C162.94 330.936 166.188 327.86 170.193 327.86H191.909C195.363 327.86 198.163 330.936 198.163 334.73V339.219C198.163 343 200.953 346.065 204.395 346.065H253.571C256.789 346.065 259.397 348.931 259.397 352.464V406.038C259.397 409.573 256.789 412.437 253.571 412.437" fill="#F68AAB"/>
<path d="M167.923 353.145C167.573 353.145 167.289 352.861 167.289 352.511V336.965C167.289 334.557 169.248 332.598 171.656 332.598H190.006C190.356 332.598 190.639 332.881 190.639 333.232C190.639 333.582 190.356 333.865 190.006 333.865H171.656C169.947 333.865 168.556 335.255 168.556 336.965V352.511C168.556 352.861 168.273 353.145 167.923 353.145" fill="white"/>
<path d="M134.911 466.04C134.911 465.224 134.799 464.624 134.575 464.24C134.351 463.84 133.903 463.64 133.231 463.64H132.751V463.16H134.911C135.503 463.16 135.943 463.24 136.231 463.4C136.535 463.544 136.751 463.816 136.879 464.216C137.007 464.616 137.071 465.224 137.071 466.04V478.04H145.591V479H134.911V466.04ZM151.542 479.24C150.454 479.24 149.534 478.984 148.782 478.472C148.03 477.944 147.462 477.24 147.078 476.36C146.694 475.464 146.502 474.464 146.502 473.36C146.502 472.272 146.694 471.28 147.078 470.384C147.462 469.488 148.014 468.784 148.734 468.272C149.47 467.744 150.326 467.48 151.302 467.48C152.918 467.48 154.118 467.936 154.902 468.848C155.702 469.744 156.102 471.048 156.102 472.76L156.054 473.72H148.782C148.782 475.064 149.07 476.16 149.646 477.008C150.222 477.856 151.014 478.28 152.022 478.28C152.774 478.28 153.406 478.12 153.918 477.8C154.446 477.48 154.934 477 155.382 476.36L155.862 476.72C155.334 477.6 154.718 478.24 154.014 478.64C153.31 479.04 152.486 479.24 151.542 479.24ZM153.822 472.76C153.822 471.352 153.614 470.28 153.198 469.544C152.782 468.808 152.15 468.44 151.302 468.44C150.822 468.44 150.39 468.632 150.006 469.016C149.622 469.384 149.318 469.896 149.094 470.552C148.886 471.208 148.782 471.944 148.782 472.76H153.822ZM162.205 479.24C161.309 479.24 160.605 478.984 160.093 478.472C159.581 477.96 159.325 477.176 159.325 476.12V468.68H157.645V467.72H159.325V465.56L160.525 464.12H161.485V467.72H164.365V468.68H161.485V476.12C161.485 477.56 162.045 478.28 163.165 478.28C163.549 478.28 163.869 478.24 164.125 478.16C164.397 478.08 164.677 477.96 164.965 477.8L165.205 478.28C164.837 478.552 164.429 478.784 163.981 478.976C163.533 479.152 162.941 479.24 162.205 479.24ZM176.314 479.24C175.418 479.24 174.714 478.984 174.202 478.472C173.69 477.96 173.434 477.176 173.434 476.12V468.68H171.754V467.72H173.434V465.56L174.634 464.12H175.594V467.72H178.474V468.68H175.594V476.12C175.594 477.56 176.154 478.28 177.274 478.28C177.658 478.28 177.978 478.24 178.234 478.16C178.506 478.08 178.786 477.96 179.074 477.8L179.314 478.28C178.946 478.552 178.538 478.784 178.09 478.976C177.642 479.152 177.05 479.24 176.314 479.24ZM181.087 466.04C181.087 465.224 180.975 464.624 180.751 464.24C180.527 463.84 180.079 463.64 179.407 463.64H178.927V463.16H181.087C181.679 463.16 182.119 463.24 182.407 463.4C182.711 463.544 182.927 463.816 183.055 464.216C183.183 464.616 183.247 465.224 183.247 466.04V468.68C183.583 468.344 184.015 468.064 184.543 467.84C185.087 467.6 185.695 467.48 186.367 467.48C187.567 467.48 188.543 467.8 189.295 468.44C190.063 469.08 190.447 470.2 190.447 471.8V479H188.287V471.8C188.287 470.68 188.031 469.864 187.519 469.352C187.023 468.824 186.399 468.56 185.647 468.56C184.799 468.56 183.999 468.984 183.247 469.832V479H181.087V466.04ZM198.183 479.24C197.095 479.24 196.175 478.984 195.423 478.472C194.671 477.944 194.103 477.24 193.719 476.36C193.335 475.464 193.143 474.464 193.143 473.36C193.143 472.272 193.335 471.28 193.719 470.384C194.103 469.488 194.655 468.784 195.375 468.272C196.111 467.744 196.967 467.48 197.943 467.48C199.559 467.48 200.759 467.936 201.543 468.848C202.343 469.744 202.743 471.048 202.743 472.76L202.695 473.72H195.423C195.423 475.064 195.711 476.16 196.287 477.008C196.863 477.856 197.655 478.28 198.663 478.28C199.415 478.28 200.047 478.12 200.559 477.8C201.087 477.48 201.575 477 202.023 476.36L202.503 476.72C201.975 477.6 201.359 478.24 200.655 478.64C199.951 479.04 199.127 479.24 198.183 479.24ZM200.463 472.76C200.463 471.352 200.255 470.28 199.839 469.544C199.423 468.808 198.791 468.44 197.943 468.44C197.463 468.44 197.031 468.632 196.647 469.016C196.263 469.384 195.959 469.896 195.735 470.552C195.527 471.208 195.423 471.944 195.423 472.76H200.463ZM214.197 479.24C213.685 479.24 213.165 479.136 212.637 478.928C212.109 478.704 211.653 478.344 211.269 477.848C210.901 477.352 210.717 476.696 210.717 475.88C210.717 474.664 211.277 473.8 212.397 473.288C213.533 472.776 215.013 472.52 216.837 472.52H217.557C217.557 470.952 217.341 469.88 216.909 469.304C216.477 468.728 215.853 468.44 215.037 468.44C214.317 468.44 213.741 468.592 213.309 468.896C212.877 469.2 212.573 469.728 212.397 470.48H211.317C211.317 469.936 211.349 469.512 211.413 469.208C211.477 468.888 211.645 468.592 211.917 468.32C212.205 468.032 212.677 467.824 213.333 467.696C214.005 467.552 214.733 467.48 215.517 467.48C216.813 467.48 217.837 467.832 218.589 468.536C219.341 469.224 219.717 470.552 219.717 472.52V479H218.517L217.677 477.92H217.557C217.269 478.288 216.845 478.6 216.285 478.856C215.725 479.112 215.029 479.24 214.197 479.24ZM215.277 478.16C215.805 478.16 216.245 478.032 216.597 477.776C216.949 477.52 217.269 477.168 217.557 476.72V473.48H216.837C215.653 473.48 214.717 473.704 214.029 474.152C213.341 474.584 212.997 475.16 212.997 475.88C212.997 476.616 213.213 477.184 213.645 477.584C214.093 477.968 214.637 478.16 215.277 478.16ZM223.16 466.04C223.16 465.224 223.048 464.624 222.824 464.24C222.6 463.84 222.152 463.64 221.48 463.64H221V463.16H223.16C223.752 463.16 224.192 463.24 224.48 463.4C224.784 463.544 225 463.816 225.128 464.216C225.256 464.616 225.32 465.224 225.32 466.04V479H223.16V466.04ZM233.052 483.8C231.436 483.8 230.148 483.504 229.188 482.912C228.244 482.32 227.772 481.376 227.772 480.08C227.772 479.344 228.02 478.704 228.516 478.16C229.012 477.616 229.644 477.216 230.412 476.96C229.772 476.608 229.452 476.128 229.452 475.52C229.452 475.2 229.524 474.952 229.668 474.776C229.812 474.6 230.02 474.408 230.292 474.2C229.78 473.944 229.348 473.544 228.996 473C228.66 472.456 228.492 471.816 228.492 471.08C228.492 468.68 230.012 467.48 233.052 467.48H237.492V468.08L235.932 468.32V468.44C236.428 468.696 236.828 469.056 237.132 469.52C237.452 469.968 237.612 470.488 237.612 471.08C237.612 473.48 236.092 474.68 233.052 474.68C231.372 474.68 230.532 474.96 230.532 475.52C230.532 476.08 231.372 476.36 233.052 476.36C234.604 476.36 235.868 476.672 236.844 477.296C237.836 477.904 238.332 478.832 238.332 480.08C238.332 481.376 237.852 482.32 236.892 482.912C235.948 483.504 234.668 483.8 233.052 483.8ZM233.052 473.84C233.772 473.84 234.348 473.624 234.78 473.192C235.228 472.744 235.452 472.04 235.452 471.08C235.452 470.168 235.228 469.48 234.78 469.016C234.348 468.552 233.772 468.32 233.052 468.32C232.332 468.32 231.748 468.544 231.3 468.992C230.868 469.424 230.652 470.12 230.652 471.08C230.652 472.04 230.868 472.744 231.3 473.192C231.748 473.624 232.332 473.84 233.052 473.84ZM233.052 482.84C234.012 482.84 234.772 482.608 235.332 482.144C235.892 481.696 236.172 481.008 236.172 480.08C236.172 478.48 235.212 477.56 233.292 477.32L231.972 477.2C231.316 477.456 230.812 477.816 230.46 478.28C230.108 478.744 229.932 479.344 229.932 480.08C229.932 481.008 230.212 481.696 230.772 482.144C231.332 482.608 232.092 482.84 233.052 482.84ZM245.321 479.24C244.233 479.24 243.289 478.984 242.489 478.472C241.689 477.944 241.081 477.232 240.665 476.336C240.249 475.44 240.041 474.448 240.041 473.36C240.041 472.272 240.249 471.28 240.665 470.384C241.081 469.488 241.689 468.784 242.489 468.272C243.289 467.744 244.233 467.48 245.321 467.48C246.409 467.48 247.353 467.744 248.153 468.272C248.953 468.784 249.561 469.488 249.977 470.384C250.393 471.28 250.601 472.272 250.601 473.36C250.601 474.448 250.393 475.44 249.977 476.336C249.561 477.232 248.953 477.944 248.153 478.472C247.353 478.984 246.409 479.24 245.321 479.24ZM245.321 478.28C245.913 478.28 246.433 478.064 246.881 477.632C247.345 477.2 247.697 476.608 247.937 475.856C248.193 475.104 248.321 474.272 248.321 473.36C248.321 472.448 248.193 471.616 247.937 470.864C247.697 470.112 247.345 469.52 246.881 469.088C246.433 468.656 245.913 468.44 245.321 468.44C244.729 468.44 244.201 468.656 243.737 469.088C243.289 469.52 242.937 470.112 242.681 470.864C242.441 471.616 242.321 472.448 242.321 473.36C242.321 474.272 242.441 475.104 242.681 475.856C242.937 476.608 243.289 477.2 243.737 477.632C244.201 478.064 244.729 478.28 245.321 478.28ZM253.608 470.6C253.608 469.784 253.496 469.184 253.271 468.8C253.048 468.4 252.6 468.2 251.928 468.2H251.688V467.72H253.608C254.216 467.72 254.672 467.808 254.976 467.984C255.296 468.144 255.52 468.416 255.648 468.8H255.768C256.056 468.432 256.44 468.12 256.92 467.864C257.416 467.608 257.992 467.48 258.648 467.48C259.288 467.48 259.768 467.6 260.088 467.84C260.36 468.048 260.64 468.408 260.928 468.92L259.968 469.64C259.792 469.4 259.536 469.224 259.2 469.112C258.864 468.984 258.48 468.92 258.048 468.92C257.568 468.92 257.128 469.032 256.728 469.256C256.328 469.464 256.008 469.752 255.768 470.12V479H253.608V470.6ZM264.227 466.28C263.859 466.28 263.539 466.128 263.267 465.824C263.011 465.52 262.883 465.16 262.883 464.744C262.883 464.408 262.979 464.144 263.171 463.952C263.379 463.76 263.651 463.664 263.987 463.664C264.355 463.664 264.667 463.816 264.923 464.12C265.195 464.424 265.331 464.784 265.331 465.2C265.331 465.536 265.227 465.8 265.019 465.992C264.827 466.184 264.563 466.28 264.227 466.28ZM263.315 470.6C263.315 469.784 263.203 469.184 262.979 468.8C262.755 468.4 262.307 468.2 261.635 468.2H261.155V467.72H263.315C263.907 467.72 264.347 467.8 264.635 467.96C264.939 468.104 265.155 468.376 265.283 468.776C265.411 469.176 265.475 469.784 265.475 470.6V479H263.315V470.6ZM272.197 479.24C271.301 479.24 270.597 478.984 270.085 478.472C269.573 477.96 269.317 477.176 269.317 476.12V468.68H267.637V467.72H269.317V465.56L270.517 464.12H271.477V467.72H274.357V468.68H271.477V476.12C271.477 477.56 272.037 478.28 273.157 478.28C273.541 478.28 273.861 478.24 274.117 478.16C274.389 478.08 274.669 477.96 274.957 477.8L275.197 478.28C274.829 478.552 274.421 478.784 273.973 478.976C273.525 479.152 272.933 479.24 272.197 479.24ZM276.97 466.04C276.97 465.224 276.858 464.624 276.634 464.24C276.41 463.84 275.962 463.64 275.29 463.64H274.81V463.16H276.97C277.562 463.16 278.002 463.24 278.29 463.4C278.594 463.544 278.81 463.816 278.938 464.216C279.066 464.616 279.13 465.224 279.13 466.04V468.68C279.466 468.344 279.898 468.064 280.426 467.84C280.97 467.6 281.578 467.48 282.25 467.48C283.45 467.48 284.426 467.8 285.178 468.44C285.946 469.08 286.33 470.2 286.33 471.8V479H284.17V471.8C284.17 470.68 283.914 469.864 283.402 469.352C282.906 468.824 282.282 468.56 281.53 468.56C280.682 468.56 279.882 468.984 279.13 469.832V479H276.97V466.04ZM290.033 470.6C290.033 469.784 289.921 469.184 289.697 468.8C289.473 468.4 289.025 468.2 288.353 468.2H287.873V467.72H290.033C290.625 467.72 291.073 467.8 291.377 467.96C291.697 468.12 291.929 468.36 292.073 468.68H292.193C292.529 468.344 292.961 468.064 293.489 467.84C294.033 467.6 294.641 467.48 295.313 467.48C295.985 467.48 296.561 467.608 297.041 467.864C297.521 468.104 297.905 468.536 298.193 469.16C298.609 468.632 299.137 468.224 299.777 467.936C300.433 467.632 301.105 467.48 301.793 467.48C302.817 467.48 303.633 467.8 304.241 468.44C304.849 469.08 305.153 470.2 305.153 471.8V479H302.993V471.8C302.993 470.648 302.833 469.824 302.513 469.328C302.193 468.816 301.713 468.56 301.073 468.56C300.625 468.56 300.153 468.728 299.657 469.064C299.161 469.384 298.793 469.736 298.553 470.12C298.633 470.36 298.673 470.92 298.673 471.8V479H296.513V471.8C296.513 470.648 296.353 469.824 296.033 469.328C295.713 468.816 295.233 468.56 294.593 468.56C293.745 468.56 292.945 468.984 292.193 469.832V479H290.033V470.6ZM318.237 479.24C316.845 479.24 315.773 478.688 315.021 477.584C314.285 476.48 313.917 475.072 313.917 473.36C313.917 471.648 314.301 470.24 315.069 469.136C315.853 468.032 316.989 467.48 318.477 467.48C319.085 467.48 319.621 467.544 320.085 467.672C320.549 467.8 321.013 467.976 321.477 468.2V466.04C321.477 465.224 321.365 464.624 321.141 464.24C320.917 463.84 320.469 463.64 319.797 463.64H319.317V463.16H321.477C322.069 463.16 322.509 463.24 322.797 463.4C323.101 463.544 323.317 463.816 323.445 464.216C323.573 464.616 323.637 465.224 323.637 466.04V479H322.437L321.597 477.92H321.477C321.125 478.32 320.709 478.64 320.229 478.88C319.765 479.12 319.101 479.24 318.237 479.24ZM318.957 478.28C319.613 478.28 320.109 478.16 320.445 477.92C320.781 477.68 321.125 477.32 321.477 476.84V469.16C320.997 468.936 320.581 468.76 320.229 468.632C319.877 468.504 319.533 468.44 319.197 468.44C318.173 468.44 317.413 468.888 316.917 469.784C316.437 470.68 316.197 471.872 316.197 473.36C316.197 474.832 316.429 476.024 316.893 476.936C317.357 477.832 318.045 478.28 318.957 478.28ZM331.735 479.24C330.647 479.24 329.703 478.984 328.903 478.472C328.103 477.944 327.495 477.232 327.079 476.336C326.663 475.44 326.455 474.448 326.455 473.36C326.455 472.272 326.663 471.28 327.079 470.384C327.495 469.488 328.103 468.784 328.903 468.272C329.703 467.744 330.647 467.48 331.735 467.48C332.823 467.48 333.767 467.744 334.567 468.272C335.367 468.784 335.975 469.488 336.391 470.384C336.807 471.28 337.015 472.272 337.015 473.36C337.015 474.448 336.807 475.44 336.391 476.336C335.975 477.232 335.367 477.944 334.567 478.472C333.767 478.984 332.823 479.24 331.735 479.24ZM331.735 478.28C332.327 478.28 332.847 478.064 333.295 477.632C333.759 477.2 334.111 476.608 334.351 475.856C334.607 475.104 334.735 474.272 334.735 473.36C334.735 472.448 334.607 471.616 334.351 470.864C334.111 470.112 333.759 469.52 333.295 469.088C332.847 468.656 332.327 468.44 331.735 468.44C331.143 468.44 330.615 468.656 330.151 469.088C329.703 469.52 329.351 470.112 329.095 470.864C328.855 471.616 328.735 472.448 328.735 473.36C328.735 474.272 328.855 475.104 329.095 475.856C329.351 476.608 329.703 477.2 330.151 477.632C330.615 478.064 331.143 478.28 331.735 478.28ZM349.166 479.24C348.27 479.24 347.566 478.984 347.054 478.472C346.542 477.96 346.286 477.176 346.286 476.12V468.68H344.606V467.72H346.286V465.56L347.486 464.12H348.446V467.72H351.326V468.68H348.446V476.12C348.446 477.56 349.006 478.28 350.126 478.28C350.51 478.28 350.83 478.24 351.086 478.16C351.358 478.08 351.638 477.96 351.926 477.8L352.166 478.28C351.798 478.552 351.39 478.784 350.942 478.976C350.494 479.152 349.902 479.24 349.166 479.24ZM353.939 466.04C353.939 465.224 353.827 464.624 353.603 464.24C353.379 463.84 352.931 463.64 352.259 463.64H351.779V463.16H353.939C354.531 463.16 354.971 463.24 355.259 463.4C355.563 463.544 355.779 463.816 355.907 464.216C356.035 464.616 356.099 465.224 356.099 466.04V468.68C356.435 468.344 356.867 468.064 357.395 467.84C357.939 467.6 358.547 467.48 359.219 467.48C360.419 467.48 361.395 467.8 362.147 468.44C362.915 469.08 363.299 470.2 363.299 471.8V479H361.139V471.8C361.139 470.68 360.883 469.864 360.371 469.352C359.875 468.824 359.251 468.56 358.499 468.56C357.651 468.56 356.851 468.984 356.099 469.832V479H353.939V466.04ZM371.034 479.24C369.946 479.24 369.026 478.984 368.274 478.472C367.522 477.944 366.954 477.24 366.57 476.36C366.186 475.464 365.994 474.464 365.994 473.36C365.994 472.272 366.186 471.28 366.57 470.384C366.954 469.488 367.506 468.784 368.226 468.272C368.962 467.744 369.818 467.48 370.794 467.48C372.41 467.48 373.61 467.936 374.394 468.848C375.194 469.744 375.594 471.048 375.594 472.76L375.546 473.72H368.274C368.274 475.064 368.562 476.16 369.138 477.008C369.714 477.856 370.506 478.28 371.514 478.28C372.266 478.28 372.898 478.12 373.41 477.8C373.938 477.48 374.426 477 374.874 476.36L375.354 476.72C374.826 477.6 374.21 478.24 373.506 478.64C372.802 479.04 371.978 479.24 371.034 479.24ZM373.314 472.76C373.314 471.352 373.106 470.28 372.69 469.544C372.274 468.808 371.642 468.44 370.794 468.44C370.314 468.44 369.882 468.632 369.498 469.016C369.114 469.384 368.81 469.896 368.586 470.552C368.378 471.208 368.274 471.944 368.274 472.76H373.314ZM204.279 503.04C204.279 502.224 204.167 501.624 203.943 501.24C203.719 500.84 203.271 500.64 202.599 500.64H202.119V500.16H204.279C204.871 500.16 205.311 500.24 205.599 500.4C205.903 500.544 206.119 500.816 206.247 501.216C206.375 501.616 206.439 502.224 206.439 503.04V505.68C206.775 505.344 207.207 505.064 207.735 504.84C208.279 504.6 208.887 504.48 209.559 504.48C210.759 504.48 211.735 504.8 212.487 505.44C213.255 506.08 213.639 507.2 213.639 508.8V516H211.479V508.8C211.479 507.68 211.223 506.864 210.711 506.352C210.215 505.824 209.591 505.56 208.839 505.56C207.991 505.56 207.191 505.984 206.439 506.832V516H204.279V503.04ZM219.67 516.24C219.158 516.24 218.638 516.136 218.11 515.928C217.582 515.704 217.126 515.344 216.742 514.848C216.374 514.352 216.19 513.696 216.19 512.88C216.19 511.664 216.75 510.8 217.87 510.288C219.006 509.776 220.486 509.52 222.31 509.52H223.03C223.03 507.952 222.814 506.88 222.382 506.304C221.95 505.728 221.326 505.44 220.51 505.44C219.79 505.44 219.214 505.592 218.782 505.896C218.35 506.2 218.046 506.728 217.87 507.48H216.79C216.79 506.936 216.822 506.512 216.886 506.208C216.95 505.888 217.118 505.592 217.39 505.32C217.678 505.032 218.15 504.824 218.806 504.696C219.478 504.552 220.206 504.48 220.99 504.48C222.286 504.48 223.31 504.832 224.062 505.536C224.814 506.224 225.19 507.552 225.19 509.52V516H223.99L223.15 514.92H223.03C222.742 515.288 222.318 515.6 221.758 515.856C221.198 516.112 220.502 516.24 219.67 516.24ZM220.75 515.16C221.278 515.16 221.718 515.032 222.07 514.776C222.422 514.52 222.742 514.168 223.03 513.72V510.48H222.31C221.126 510.48 220.19 510.704 219.502 511.152C218.814 511.584 218.47 512.16 218.47 512.88C218.47 513.616 218.686 514.184 219.118 514.584C219.566 514.968 220.11 515.16 220.75 515.16ZM228.729 507.6C228.729 506.784 228.617 506.184 228.393 505.8C228.169 505.4 227.721 505.2 227.049 505.2H226.809V504.72H228.729C229.337 504.72 229.793 504.808 230.097 504.984C230.417 505.144 230.641 505.416 230.769 505.8H230.889C231.177 505.432 231.561 505.12 232.041 504.864C232.537 504.608 233.113 504.48 233.769 504.48C234.409 504.48 234.889 504.6 235.209 504.84C235.481 505.048 235.761 505.408 236.049 505.92L235.089 506.64C234.913 506.4 234.657 506.224 234.321 506.112C233.985 505.984 233.601 505.92 233.169 505.92C232.689 505.92 232.249 506.032 231.849 506.256C231.449 506.464 231.129 506.752 230.889 507.12V516H228.729V507.6ZM241.585 516.24C240.193 516.24 239.121 515.688 238.369 514.584C237.633 513.48 237.265 512.072 237.265 510.36C237.265 508.648 237.649 507.24 238.417 506.136C239.201 505.032 240.337 504.48 241.825 504.48C242.433 504.48 242.969 504.544 243.433 504.672C243.897 504.8 244.361 504.976 244.825 505.2V503.04C244.825 502.224 244.713 501.624 244.489 501.24C244.265 500.84 243.817 500.64 243.145 500.64H242.665V500.16H244.825C245.417 500.16 245.857 500.24 246.145 500.4C246.449 500.544 246.665 500.816 246.793 501.216C246.921 501.616 246.985 502.224 246.985 503.04V516H245.785L244.945 514.92H244.825C244.473 515.32 244.057 515.64 243.577 515.88C243.113 516.12 242.449 516.24 241.585 516.24ZM242.305 515.28C242.961 515.28 243.457 515.16 243.793 514.92C244.129 514.68 244.473 514.32 244.825 513.84V506.16C244.345 505.936 243.929 505.76 243.577 505.632C243.225 505.504 242.881 505.44 242.545 505.44C241.521 505.44 240.761 505.888 240.265 506.784C239.785 507.68 239.545 508.872 239.545 510.36C239.545 511.832 239.777 513.024 240.241 513.936C240.705 514.832 241.393 515.28 242.305 515.28ZM257.123 507.48C256.755 506.584 256.387 505.96 256.019 505.608C255.667 505.24 255.195 505.04 254.603 505.008V504.528C254.683 504.528 254.803 504.52 254.963 504.504C255.123 504.488 255.283 504.48 255.443 504.48C256.307 504.48 257.067 504.704 257.723 505.152C258.395 505.584 258.955 506.36 259.403 507.48L261.443 512.52L263.483 507.36C263.099 506.512 262.731 505.92 262.379 505.584C262.043 505.232 261.611 505.04 261.083 505.008V504.528C261.163 504.528 261.283 504.52 261.443 504.504C261.603 504.488 261.763 504.48 261.923 504.48C262.787 504.48 263.547 504.704 264.203 505.152C264.875 505.584 265.435 506.36 265.883 507.48L267.923 512.52L271.043 504.72H272.243L267.563 516.24H267.083L264.083 508.8L261.083 516.24H260.603L257.123 507.48ZM278.895 516.24C277.807 516.24 276.863 515.984 276.063 515.472C275.263 514.944 274.655 514.232 274.239 513.336C273.823 512.44 273.615 511.448 273.615 510.36C273.615 509.272 273.823 508.28 274.239 507.384C274.655 506.488 275.263 505.784 276.063 505.272C276.863 504.744 277.807 504.48 278.895 504.48C279.983 504.48 280.927 504.744 281.727 505.272C282.527 505.784 283.135 506.488 283.551 507.384C283.967 508.28 284.175 509.272 284.175 510.36C284.175 511.448 283.967 512.44 283.551 513.336C283.135 514.232 282.527 514.944 281.727 515.472C280.927 515.984 279.983 516.24 278.895 516.24ZM278.895 515.28C279.487 515.28 280.007 515.064 280.455 514.632C280.919 514.2 281.271 513.608 281.511 512.856C281.767 512.104 281.895 511.272 281.895 510.36C281.895 509.448 281.767 508.616 281.511 507.864C281.271 507.112 280.919 506.52 280.455 506.088C280.007 505.656 279.487 505.44 278.895 505.44C278.303 505.44 277.775 505.656 277.311 506.088C276.863 506.52 276.511 507.112 276.255 507.864C276.015 508.616 275.895 509.448 275.895 510.36C275.895 511.272 276.015 512.104 276.255 512.856C276.511 513.608 276.863 514.2 277.311 514.632C277.775 515.064 278.303 515.28 278.895 515.28ZM287.182 507.6C287.182 506.784 287.07 506.184 286.846 505.8C286.622 505.4 286.174 505.2 285.502 505.2H285.262V504.72H287.182C287.79 504.72 288.246 504.808 288.55 504.984C288.87 505.144 289.094 505.416 289.222 505.8H289.342C289.63 505.432 290.014 505.12 290.494 504.864C290.99 504.608 291.566 504.48 292.222 504.48C292.862 504.48 293.342 504.6 293.662 504.84C293.934 505.048 294.214 505.408 294.502 505.92L293.542 506.64C293.366 506.4 293.11 506.224 292.774 506.112C292.438 505.984 292.054 505.92 291.622 505.92C291.142 505.92 290.702 506.032 290.302 506.256C289.902 506.464 289.582 506.752 289.342 507.12V516H287.182V507.6ZM305.049 516.24C303.689 516.24 302.529 515.6 301.569 514.32L298.689 510.48V516H296.529V503.04C296.529 502.224 296.417 501.624 296.193 501.24C295.969 500.84 295.521 500.64 294.849 500.64H294.369V500.16H296.529C297.121 500.16 297.561 500.24 297.849 500.4C298.153 500.544 298.369 500.816 298.497 501.216C298.625 501.616 298.689 502.224 298.689 503.04V510.12L301.689 506.28C302.105 505.768 302.545 505.384 303.009 505.128C303.473 504.856 304.073 504.72 304.809 504.72H305.529V505.32C305.097 505.32 304.681 505.408 304.281 505.584C303.881 505.76 303.537 506.032 303.249 506.4L300.609 509.76L303.609 513.6C304.073 514.208 304.505 514.664 304.905 514.968C305.321 515.272 305.769 515.464 306.249 515.544V516C305.897 516.16 305.497 516.24 305.049 516.24Z" fill="#2B2B2B"/>
<path d="M202.551 518.4H306.441V519.6H202.551V518.4Z" fill="#2B2B2B"/>
<defs>
<clipPath id="clip0_1802_51">
<rect width="48.9408" height="48.9408" fill="white" transform="matrix(-1 0 0 1 162.94 291.748)"/>
</clipPath>
</defs>
</svg>
