<svg width="247" height="232" viewBox="0 0 247 232" fill="none" xmlns="http://www.w3.org/2000/svg">
<path fill-rule="evenodd" clip-rule="evenodd" d="M108.272 229.501C20.746 229.501 6.50064 165.459 2.67663 109.001C-1.86097 41.9967 82.0594 -7.68897 111.774 41.5982C151.004 106.669 243.918 43.5622 243.918 101.115" fill="white"/>
<path fill-rule="evenodd" clip-rule="evenodd" d="M243.924 101.293C243.924 158.768 166.346 229.502 109.199 229.502Z" fill="white"/>
<path fill-rule="evenodd" clip-rule="evenodd" d="M218.231 37.3863L188.966 143.858C187.799 148.104 183.173 151.04 178.641 150.416L91.8676 138.435C87.3357 137.809 84.6038 133.855 85.7686 129.612L115.035 23.14C116.202 18.8945 120.829 15.958 125.361 16.5841L212.134 28.5637C216.666 29.1898 219.398 33.143 218.231 37.3863Z" fill="white"/>
<path fill-rule="evenodd" clip-rule="evenodd" d="M123.666 16.6683C119.818 16.6683 116.142 19.2634 115.152 22.8674L85.9267 129.209C85.4197 131.048 85.6919 132.887 86.6905 134.393C87.7397 135.975 89.4605 137.004 91.5281 137.287L178.185 149.254C182.434 149.862 186.758 147.094 187.847 143.131L217.074 36.791C217.579 34.9519 217.309 33.1107 216.308 31.605C215.259 30.0253 213.54 28.9968 211.471 28.7114L124.814 16.7467C124.432 16.6922 124.048 16.6683 123.666 16.6683ZM179.32 150.5C178.887 150.5 178.455 150.47 178.022 150.411L91.3657 138.444C88.9579 138.113 86.9473 136.901 85.7094 135.036C84.5198 133.249 84.1949 131.068 84.7919 128.9L114.017 22.5602C115.255 18.0541 120.167 14.9295 124.976 15.5875L211.633 27.5522C214.043 27.8856 216.051 29.0992 217.289 30.9644C218.479 32.7512 218.804 34.9301 218.211 37.0982L188.982 143.438C187.856 147.541 183.683 150.5 179.32 150.5Z" fill="black"/>
<path fill-rule="evenodd" clip-rule="evenodd" d="M216 53.5C230.083 53.5 241.5 42.0833 241.5 28C241.5 13.9167 230.083 2.5 216 2.5C201.917 2.5 190.5 13.9167 190.5 28C190.5 42.0833 201.917 53.5 216 53.5Z" fill="#E96363" stroke="white" stroke-width="5"/>
<path fill-rule="evenodd" clip-rule="evenodd" d="M197.482 105.385C198.399 103.321 199.314 101.257 200.91 97.0714C202.503 92.8862 204.775 86.5821 206.712 83.9302C207.404 82.9826 208.054 82.5 208.612 82.5C209.616 82.5 210.326 84.0508 210.471 87.2248C210.696 92.1668 209.546 101.048 208.843 107.326C208.144 113.604 207.891 117.274 205.237 118.732C204.27 119.263 202.988 119.5 201.603 119.5C199.175 119.5 196.432 118.772 194.523 117.611C191.526 115.786 190.595 112.895 190.507 109.096C190.419 105.299 191.174 100.596 192.478 99.8265C192.61 99.7453 192.751 99.708 192.897 99.708C194.162 99.708 195.821 102.546 197.482 105.385Z" fill="white"/>
<path fill-rule="evenodd" clip-rule="evenodd" d="M192.43 100.771C192.375 100.771 192.328 100.784 192.279 100.812C191.419 101.324 190.492 105.256 190.592 109.559C190.687 113.644 191.805 116.041 194.327 117.581C197.187 119.33 202.227 119.92 204.46 118.687C206.699 117.456 207.056 114.202 207.652 108.809L208.086 104.956C208.75 99.1743 209.574 91.9776 209.387 87.792C209.255 84.9077 208.635 83.6153 208.078 83.6153C207.901 83.6153 207.409 83.7312 206.618 84.818C204.939 87.1207 202.912 92.4871 201.433 96.4059L200.912 97.7879C199.311 101.991 198.383 104.082 197.487 106.102L197.062 107.066L196.523 106.146C195.197 103.876 193.38 100.771 192.43 100.771ZM201.097 120.5C198.564 120.5 195.755 119.75 193.771 118.538C190.926 116.804 189.61 114.042 189.506 109.586C189.429 106.137 190.068 100.836 191.741 99.8457C191.956 99.721 192.188 99.6576 192.43 99.6576C193.846 99.6576 195.291 101.901 196.928 104.678C197.698 102.925 198.562 100.9 199.903 97.3812L200.424 96.0035C202.008 91.8026 203.981 86.574 205.749 84.1467C206.548 83.0554 207.331 82.5 208.078 82.5C209.059 82.5 210.274 83.4097 210.472 87.7418C210.664 92.0191 209.831 99.2662 209.163 105.087L208.729 108.936C208.095 114.69 207.714 118.162 204.972 119.671C203.985 120.213 202.644 120.5 201.097 120.5Z" fill="black"/>
<path fill-rule="evenodd" clip-rule="evenodd" d="M47.2766 220.5C32.6286 220.5 15.8322 215.003 10.4646 201.174C6.59759 191.083 8.78956 176.524 13.987 162.996C16.3491 156.725 19.3982 150.672 22.792 145.345C23.2653 144.53 23.8236 143.715 24.3383 142.984C32.8009 122.928 41.8217 103.432 57.2418 89.8196C74.1669 74.9182 98.8238 67.2298 123.481 59.5L127.389 71.1808C118.283 75.1319 109.175 79.0415 100.843 83.9366C94.141 87.8877 87.9555 92.4405 82.5858 98.064C74.7252 106.352 68.712 116.96 63.4273 128.469C69.3991 131.26 75.2836 135.468 80.9543 139.849C83.8748 142.125 86.7538 144.401 89.5891 146.634C101.101 155.696 112.226 164.198 124.77 167.85C129.623 169.309 134.735 169.952 139.76 169.952C150.842 169.952 161.669 166.647 169.272 160.72C180.31 152.046 184.563 137.788 188.773 123.53C189.416 120.353 190.018 117.176 192.038 115.671C194.014 114.169 197.364 114.339 200.542 114.254H201.403C204.237 114.254 206.642 115.069 204.924 127.396C202.95 140.795 196.075 168.02 181.298 185.584C172.45 196.236 160.722 203.407 148.609 206.927C142.683 208.688 136.711 209.55 130.912 209.55C128.892 209.55 126.959 209.462 125.027 209.247C105.912 207.186 90.2762 195.117 74.5965 182.965C76.3152 196.452 77.9488 209.933 66.3499 216.42C65.5342 216.935 64.6313 217.365 63.6432 217.75" fill="#F6C85F"/>
<path fill-rule="evenodd" clip-rule="evenodd" d="M148.5 205.996C142.523 207.76 136.503 208.62 130.658 208.62C128.622 208.62 126.673 208.533 124.723 208.317C105.451 206.254 89.6872 194.175 73.8812 182.01C75.614 195.508 77.2588 209.006 65.5648 215.5C74.5299 194.347 48.3713 174.917 63.0976 161.633C79.4225 146.888 93.4122 189.017 103.589 188.329C112.772 187.727 138.106 190.864 148.5 205.996Z" fill="#E1B34A"/>
<path fill-rule="evenodd" clip-rule="evenodd" d="M80.4658 139.234C83.4076 141.513 86.3076 143.791 89.1636 146.026C78.4754 152.645 59.4803 148.345 53.4233 145.122C45.5911 140.997 38.6245 125.265 48.0143 113.36C56.365 102.743 74.6241 106.654 73.5871 97.071C72.504 87.5712 89.2076 77.2989 100.5 83.272C93.7487 87.2264 87.5181 91.7832 82.1114 97.4136C74.1913 105.709 68.1342 116.326 62.8109 127.844C68.8263 130.638 74.7537 134.85 80.4658 139.234Z" fill="#E1B34A"/>
<path fill-rule="evenodd" clip-rule="evenodd" d="M34.489 125.5L33.5 125.007C41.1204 108.979 48.974 97.6438 58.2096 89.3381C59.6671 88.0286 61.224 86.7367 62.8371 85.5L63.5 86.401C61.9064 87.62 60.3711 88.892 58.9373 90.1817C49.6866 98.4984 42.1482 109.392 34.489 125.5Z" fill="black"/>
<path fill-rule="evenodd" clip-rule="evenodd" d="M90.2127 92.5L89.5 91.6656C99.4626 83.5471 111.526 78.0318 122.053 73.5L122.5 74.4919C112.045 78.994 100.064 84.4709 90.2127 92.5Z" fill="black"/>
<path fill-rule="evenodd" clip-rule="evenodd" d="M138.686 61.9094C137.351 64.455 136.017 66.9964 134.029 68.9947C132.654 70.3778 130.965 71.5 129.069 71.5C128.227 71.5 127.341 71.2794 126.422 70.7575C123.445 69.0689 120.13 64.2408 122.088 60.9697C123.77 58.161 129.337 56.5 135.134 56.5C136.089 56.5 137.05 56.5445 138.003 56.6379C144.725 57.2913 150.938 60.3142 152.832 62.9722C154.635 65.503 152.522 67.7049 149.659 67.7049C149.515 67.7049 149.371 67.6986 149.223 67.688C146.143 67.4504 142.416 64.6799 138.686 61.9094Z" fill="white"/>
<path fill-rule="evenodd" clip-rule="evenodd" d="M135.641 56.5764C129.742 56.5764 124.591 58.2943 123.117 60.7552C121.385 63.6446 124.376 68.1379 127.238 69.7588C129.476 71.0251 131.782 70.4637 134.142 68.0957C136.065 66.1667 137.398 63.6298 138.685 61.1752L138.988 60.6012L139.529 61.0022C143.116 63.6615 146.824 66.4115 149.724 66.6331C151.318 66.7618 152.647 66.1603 153.171 65.1874C153.556 64.474 153.436 63.6425 152.823 62.7835C151.098 60.3669 145.11 57.3573 138.444 56.7093C137.533 56.6207 136.589 56.5764 135.641 56.5764ZM129.598 71.5C128.611 71.5 127.628 71.2256 126.679 70.6874C123.469 68.8703 120.028 63.767 122.16 60.215C124.111 56.9584 130.336 55.5 135.641 55.5C136.626 55.5 137.607 55.5464 138.557 55.6393C145.628 56.3273 151.829 59.4995 153.732 62.1693C154.583 63.3618 154.733 64.6112 154.152 65.6855C153.413 67.0531 151.642 67.8825 149.632 67.7031C146.559 67.4689 142.922 64.8666 139.373 62.2389C138.137 64.5795 136.821 66.9539 134.938 68.8449C133.183 70.6072 131.384 71.5 129.598 71.5Z" fill="black"/>
<path fill-rule="evenodd" clip-rule="evenodd" d="M62.4478 113.513L54.1605 112.5C49.5838 118.588 45.0092 124.679 46.9635 127.802C48.1518 129.7 51.7535 130.5 55.1311 130.5C57.3052 130.5 59.3858 130.169 60.6633 129.583C63.9255 128.087 61.9647 124.944 61.3923 121.99C60.8178 119.038 61.6339 116.275 62.4478 113.513Z" fill="white"/>
<path fill-rule="evenodd" clip-rule="evenodd" d="M54.8543 113.671C50.5862 119.388 46.2666 125.241 47.9678 127.971C48.885 129.443 51.8664 130.392 55.5674 130.392C57.6746 130.392 59.6336 130.072 60.8021 129.532C62.7847 128.618 62.4625 127.135 61.7236 124.595C61.5346 123.946 61.3391 123.278 61.2102 122.607C60.6646 119.775 61.3391 117.122 62.0823 114.559L54.8543 113.671ZM55.5674 131.5C53.9951 131.5 48.7411 131.289 47.0441 128.566C44.9133 125.146 49.4069 119.126 54.1669 112.757L54.3559 112.5L54.676 112.533L63.5 113.615L63.3131 114.25C62.5076 117 61.7451 119.599 62.2821 122.396C62.4045 123.014 62.5914 123.657 62.774 124.281C63.442 126.58 64.2024 129.182 61.2553 130.542C59.9494 131.141 57.825 131.5 55.5674 131.5Z" fill="black"/>
<path fill-rule="evenodd" clip-rule="evenodd" d="M51.5 115.042C55.5393 117.771 59.5808 120.5 62.7919 120.5C63.9992 120.5 65.0901 120.114 66.02 119.194C69.4175 115.836 70.6524 105.364 68.2525 101.085C67.1849 99.1801 65.3993 98.5 63.2134 98.5C60.4831 98.5 57.1279 99.5623 53.7749 100.625L51.5 115.042Z" fill="white"/>
<path fill-rule="evenodd" clip-rule="evenodd" d="M52.6671 114.256C56.4544 116.819 60.3425 119.406 63.295 119.406C64.4221 119.406 65.3474 119.031 66.1254 118.26C69.3281 115.084 70.5583 105.021 68.2514 100.891C67.3766 99.3233 65.9341 98.5944 63.7134 98.5944C61.1669 98.5944 57.9537 99.5899 54.8183 100.583L52.6671 114.256ZM63.295 120.5C59.9451 120.5 55.7983 117.692 51.7881 114.972L51.5 114.778L53.8636 99.7404L54.1832 99.6394C57.4953 98.5858 60.9187 97.5 63.7134 97.5C66.321 97.5 68.1105 98.4289 69.1809 100.347C71.719 104.886 70.4026 115.546 66.8698 119.049C65.8983 120.012 64.6955 120.5 63.295 120.5Z" fill="black"/>
<path fill-rule="evenodd" clip-rule="evenodd" d="M63.6583 107.111C65.7191 109.036 67.78 110.959 69.8671 110.959C70.7619 110.959 71.6589 110.607 72.5646 109.747C75.5815 106.883 78.6684 98.4079 77.0582 95.1859C76.45 93.9693 75.1702 93.5 73.4747 93.5C70.6809 93.5 66.7583 94.7666 62.8379 96.0311C61.464 95.9529 60.0923 95.8768 58.7599 95.8768C55.5877 95.8768 52.6386 96.3157 50.4465 98.2471C47.3333 100.993 45.7429 106.742 46.4386 111.016C47.1343 115.289 50.1183 118.085 46.257 121.435C42.3956 124.786 31.691 128.692 27.4971 138.156C23.3054 147.618 25.6222 162.641 35.3008 167.573C37.9085 168.902 41.0523 169.5 44.3427 169.5C53.2599 169.5 63.2645 165.118 66.6599 159.074C71.3066 150.796 63.5664 139.398 60.1754 131.959C56.7844 124.516 57.7404 121.031 59.3375 118.537C60.9345 116.043 63.1704 114.537 63.9974 112.799C64.8243 111.059 64.2402 109.086 63.6583 107.111Z" fill="#121212"/>
<path fill-rule="evenodd" clip-rule="evenodd" d="M133.5 210.5C107.637 210.5 79.4634 188.8 70.5 175.123L71.4388 174.5C81.5463 189.922 116.388 215.719 144.202 207.961L144.5 209.055C140.926 210.048 137.237 210.5 133.5 210.5Z" fill="black"/>
<path fill-rule="evenodd" clip-rule="evenodd" d="M145.526 170.5L145.5 169.391C172.082 168.79 181.823 151.445 191.431 117.5L192.5 117.803C184.168 147.247 175.417 169.827 145.526 170.5Z" fill="black"/>
<path fill-rule="evenodd" clip-rule="evenodd" d="M46.8022 221.5C40.57 221.5 31.3211 220.51 24.3143 215.511C9.9455 205.257 3.12411 193.314 13.503 165.5L14.5578 165.889C4.42616 193.039 11.0313 204.661 24.972 214.606C35.9643 222.451 53.3301 219.994 53.5 219.974" fill="black"/>
<path fill-rule="evenodd" clip-rule="evenodd" d="M31.4464 43.4487H27.5513V39.5536C27.5513 38.9732 27.0804 38.5 26.4977 38.5C25.9173 38.5 25.4464 38.9732 25.4464 39.5536V43.4487H21.5513C20.9709 43.4487 20.5 43.9196 20.5 44.5023C20.5 45.0827 20.9709 45.5536 21.5513 45.5536H25.4464V49.4487C25.4464 50.0291 25.9173 50.5 26.4977 50.5C27.0804 50.5 27.5513 50.0291 27.5513 49.4487V45.5536H31.4464C32.0291 45.5536 32.5 45.0827 32.5 44.5023C32.5 43.9196 32.0291 43.4487 31.4464 43.4487Z" fill="black"/>
<path fill-rule="evenodd" clip-rule="evenodd" d="M45.71 72.2111H42.7889V69.29C42.7889 68.8548 42.4363 68.5 41.9989 68.5C41.5637 68.5 41.2111 68.8548 41.2111 69.29V72.2111H38.29C37.8526 72.2111 37.5 72.5637 37.5 73.0011C37.5 73.4363 37.8526 73.7889 38.29 73.7889H41.2111V76.71C41.2111 77.1452 41.5637 77.5 41.9989 77.5C42.4363 77.5 42.7889 77.1452 42.7889 76.71V73.7889H45.71C46.1452 73.7889 46.5 73.4363 46.5 73.0011C46.5 72.5637 46.1452 72.2111 45.71 72.2111Z" fill="black"/>
<path fill-rule="evenodd" clip-rule="evenodd" d="M67.4487 32.4477H63.5513V28.5511C63.5513 27.9709 63.0804 27.5 62.5 27.5C61.9174 27.5 61.4487 27.9709 61.4487 28.5511V32.4477H57.5513C56.971 32.4477 56.5 32.9186 56.5 33.5011C56.5 34.0814 56.971 34.5523 57.5513 34.5523H61.4487V38.4466C61.4487 39.0291 61.9174 39.5 62.5 39.5C63.0804 39.5 63.5513 39.0291 63.5513 38.4466V34.5523H67.4487C68.029 34.5523 68.5 34.0814 68.5 33.5011C68.5 32.9186 68.029 32.4477 67.4487 32.4477Z" fill="black"/>
<path d="M205.5 29.4541L213.261 35.4424L227.383 18.4486" stroke="white" stroke-width="3" stroke-linecap="round"/>
<path d="M137.579 31.5644C138.519 31.6965 139.278 31.9271 139.857 32.2561C140.435 32.5852 140.837 33.0187 141.063 33.5567C141.291 34.0842 141.352 34.7229 141.246 35.4729C141.169 36.0221 141.013 36.4796 140.779 36.8451C140.544 37.2107 140.256 37.504 139.912 37.7251C139.581 37.937 139.23 38.0977 138.859 38.2072L141.202 43.6098L138.793 43.2713L136.965 38.4581L135.587 38.2644L134.959 42.7325L132.836 42.4341L134.426 31.1212L137.579 31.5644ZM137.245 33.2464L136.311 33.115L135.821 36.6007L136.787 36.7366C137.241 36.8004 137.626 36.7844 137.941 36.6887C138.267 36.5944 138.522 36.4256 138.707 36.1823C138.903 35.9405 139.028 35.6242 139.083 35.2334C139.141 34.8214 139.113 34.4836 138.999 34.2199C138.887 33.9456 138.685 33.7341 138.393 33.5854C138.103 33.4262 137.721 33.3132 137.245 33.2464ZM146.967 35.5012C147.706 35.6052 148.318 35.8527 148.801 36.2438C149.297 36.6258 149.652 37.1281 149.866 37.7506C150.081 38.3626 150.131 39.0805 150.016 39.9044L149.873 40.9184L144.613 40.1792C144.524 40.9638 144.629 41.5979 144.927 42.0814C145.237 42.5559 145.725 42.8399 146.391 42.9334C146.919 43.0076 147.396 43.0209 147.823 42.9732C148.251 42.9149 148.702 42.8113 149.176 42.6623L148.951 44.2626C148.521 44.4069 148.083 44.4961 147.637 44.5303C147.19 44.5645 146.65 44.5371 146.016 44.448C145.214 44.3352 144.523 44.0766 143.944 43.6721C143.378 43.2585 142.966 42.6998 142.709 41.9959C142.453 41.2921 142.393 40.4542 142.529 39.4824C142.668 38.5001 142.942 37.6985 143.352 37.0775C143.764 36.446 144.279 36.0014 144.897 35.7435C145.527 35.4766 146.217 35.3958 146.967 35.5012ZM146.791 36.9792C146.316 36.9124 145.906 37.0325 145.561 37.3395C145.228 37.6374 144.988 38.1207 144.84 38.7893L148.073 39.2436C148.129 38.8422 148.121 38.4802 148.048 38.1575C147.974 37.8349 147.834 37.5727 147.625 37.371C147.428 37.1603 147.15 37.0297 146.791 36.9792ZM157.142 43.3134C157.062 43.8838 156.867 44.3518 156.557 44.7176C156.248 45.0728 155.832 45.3159 155.307 45.4468C154.782 45.5777 154.145 45.5905 153.395 45.4851C152.825 45.4049 152.334 45.2929 151.924 45.149C151.513 45.0051 151.125 44.8159 150.759 44.5814L150.998 42.8861C151.392 43.1462 151.822 43.379 152.289 43.5846C152.766 43.7917 153.205 43.9235 153.607 43.9799C154.082 44.0467 154.437 44.0104 154.672 43.8711C154.907 43.7318 155.045 43.5195 155.085 43.2343C155.109 43.0653 155.083 42.9055 155.007 42.7548C154.942 42.6056 154.782 42.4378 154.528 42.2513C154.286 42.0557 153.928 41.8061 153.454 41.5025C152.989 41.2109 152.608 40.9312 152.312 40.6634C152.015 40.3955 151.804 40.0966 151.678 39.7665C151.554 39.4258 151.525 39.0179 151.592 38.5425C151.7 37.7714 152.072 37.2313 152.708 36.9221C153.356 36.6039 154.155 36.5115 155.106 36.6452C155.624 36.7179 156.097 36.8383 156.526 37.0062C156.967 37.1651 157.398 37.3874 157.821 37.6731L156.996 39.0597C156.759 38.9079 156.515 38.7712 156.262 38.6496C156.022 38.5189 155.784 38.4101 155.549 38.3231C155.324 38.2376 155.095 38.1786 154.863 38.1459C154.493 38.094 154.204 38.1233 153.994 38.2339C153.786 38.3339 153.665 38.5054 153.631 38.7483C153.607 38.9173 153.633 39.0772 153.709 39.2279C153.786 39.368 153.947 39.5252 154.192 39.6997C154.437 39.8741 154.787 40.1011 155.244 40.3806C155.703 40.6391 156.086 40.9029 156.393 41.1723C156.701 41.431 156.917 41.7307 157.042 42.0714C157.177 42.4135 157.21 42.8275 157.142 43.3134ZM163.151 37.7758C163.891 37.8798 164.502 38.1273 164.986 38.5184C165.482 38.9004 165.836 39.4027 166.051 40.0252C166.266 40.6372 166.316 41.3551 166.2 42.179L166.058 43.1931L160.797 42.4538C160.709 43.2384 160.814 43.8725 161.112 44.356C161.422 44.8305 161.91 45.1145 162.575 45.208C163.104 45.2822 163.581 45.2955 164.008 45.2478C164.436 45.1895 164.887 45.0859 165.36 44.937L165.135 46.5372C164.706 46.6815 164.268 46.7708 163.821 46.805C163.375 46.8392 162.835 46.8117 162.201 46.7226C161.398 46.6098 160.708 46.3512 160.129 45.9467C159.562 45.5332 159.151 44.9744 158.894 44.2706C158.638 43.5667 158.578 42.7288 158.714 41.757C158.852 40.7747 159.126 39.9731 159.537 39.3521C159.949 38.7207 160.464 38.276 161.082 38.0181C161.711 37.7512 162.401 37.6704 163.151 37.7758ZM162.976 39.2538C162.501 39.187 162.091 39.3071 161.746 39.6141C161.413 39.9121 161.173 40.3953 161.025 41.0639L164.257 41.5182C164.314 41.1168 164.305 40.7548 164.232 40.4321C164.159 40.1095 164.018 39.8473 163.81 39.6456C163.613 39.4349 163.335 39.3043 162.976 39.2538ZM171.988 39.0177C173.023 39.1632 173.781 39.5175 174.262 40.0806C174.745 40.6331 174.914 41.4217 174.77 42.4463L173.959 48.2136L172.486 48.0065L172.241 46.7603L172.177 46.7514C171.902 47.025 171.628 47.2504 171.355 47.4276C171.084 47.5941 170.784 47.6974 170.456 47.7373C170.125 47.7879 169.738 47.7819 169.295 47.7196C168.819 47.6528 168.405 47.4976 168.051 47.254C167.698 47.0105 167.438 46.6777 167.271 46.2557C167.105 45.8231 167.065 45.3058 167.15 44.7037C167.274 43.8164 167.674 43.194 168.349 42.8365C169.026 42.4684 169.979 42.3493 171.211 42.4792L172.596 42.6254L172.656 42.1977C172.733 41.6484 172.672 41.2412 172.472 40.9762C172.272 40.7111 171.972 40.5504 171.57 40.494C171.19 40.4406 170.796 40.4498 170.387 40.5216C169.989 40.5949 169.593 40.6901 169.2 40.8071L168.746 39.3215C169.21 39.1606 169.716 39.0485 170.264 38.9855C170.811 38.9224 171.386 38.9331 171.988 39.0177ZM171.53 43.7683C170.776 43.6946 170.232 43.7743 169.897 44.0073C169.564 44.2298 169.366 44.5682 169.302 45.0224C169.246 45.4238 169.305 45.7284 169.481 45.9361C169.667 46.1454 169.929 46.2738 170.267 46.3213C170.763 46.391 171.209 46.2867 171.603 46.0082C171.999 45.7192 172.243 45.2473 172.335 44.5924L172.438 43.8635L171.53 43.7683ZM181.805 40.3974C181.952 40.4182 182.105 40.445 182.262 40.4778C182.419 40.5106 182.548 40.5503 182.649 40.5969L182.198 42.4239C182.096 42.3879 181.971 42.3543 181.825 42.3229C181.69 42.2825 181.544 42.2512 181.386 42.2289C181.122 42.1918 180.855 42.2082 180.587 42.2782C180.32 42.3377 180.072 42.4536 179.843 42.6261C179.616 42.788 179.417 43.0133 179.247 43.3018C179.088 43.5918 178.979 43.948 178.92 44.3705L178.294 48.8228L176.187 48.5266L177.393 39.939L179.01 40.1661L179.085 41.6956L179.196 41.7112C179.398 41.4271 179.632 41.1799 179.898 40.9697C180.177 40.7503 180.475 40.5875 180.791 40.4811C181.118 40.3763 181.456 40.3484 181.805 40.3974ZM185.915 50.0554C185.123 49.9441 184.458 49.6945 183.92 49.3065C183.394 48.9094 183.018 48.3665 182.792 47.6776C182.577 46.9797 182.541 46.1237 182.684 45.1096C182.832 44.0533 183.122 43.2215 183.552 42.6141C183.994 41.9976 184.537 41.5785 185.183 41.3568C185.84 41.1261 186.554 41.0649 187.325 41.1732C187.811 41.2415 188.258 41.3582 188.665 41.5232C189.084 41.6897 189.425 41.8669 189.689 42.0549L188.84 43.5027C188.571 43.3464 188.3 43.206 188.026 43.0814C187.753 42.9568 187.474 42.8745 187.188 42.8344C186.755 42.7735 186.381 42.8287 186.067 42.9999C185.752 43.171 185.485 43.4567 185.267 43.857C185.062 44.2482 184.914 44.7606 184.825 45.3944C184.739 46.007 184.741 46.5297 184.831 46.9625C184.932 47.3967 185.11 47.7395 185.365 47.9908C185.622 48.2316 185.957 48.3809 186.368 48.4388C186.78 48.4967 187.169 48.4921 187.534 48.4249C187.909 48.3591 188.27 48.2482 188.615 48.092L188.372 49.8191C188.016 49.9737 187.648 50.0674 187.266 50.0999C186.883 50.143 186.433 50.1282 185.915 50.0554ZM193.524 41.6082C193.477 41.9462 193.414 42.2767 193.336 42.5997C193.271 42.9137 193.216 43.1484 193.173 43.3038L193.3 43.3216C193.51 43.0496 193.744 42.8402 194.002 42.6933C194.272 42.5373 194.561 42.4325 194.87 42.379C195.19 42.327 195.513 42.324 195.841 42.37C196.443 42.4547 196.945 42.6383 197.347 42.921C197.749 43.2037 198.038 43.5945 198.216 44.0934C198.395 44.5817 198.433 45.1956 198.329 45.935L197.543 51.528L195.436 51.2319L196.166 46.035C196.258 45.3801 196.215 44.8786 196.038 44.5305C195.861 44.1825 195.534 43.975 195.059 43.9082C194.605 43.8444 194.224 43.9094 193.917 44.1031C193.611 44.2864 193.374 44.5924 193.206 45.0212C193.04 45.4394 192.912 45.9654 192.823 46.5992L192.235 50.7821L190.128 50.4859L191.82 38.4443L193.927 38.7404L193.524 41.6082ZM164.819 69.1453L164.369 66.0282L160.503 65.4849L159.21 68.357L156.929 68.0363L162.328 57.2104L164.879 57.5689L167.101 69.4659L164.819 69.1453ZM163.613 61.1718C163.595 60.9969 163.565 60.788 163.524 60.5452C163.494 60.2934 163.466 60.0362 163.438 59.7738C163.421 59.5129 163.401 59.2678 163.38 59.0386C163.302 59.2861 163.213 59.5322 163.114 59.7768C163.017 60.0109 162.921 60.2343 162.826 60.4472C162.742 60.6616 162.661 60.8549 162.583 61.0271L161.286 63.8177L164.107 64.2141L163.613 61.1718Z" fill="black"/>
<rect x="131.553" y="74.3486" width="59.7722" height="2" transform="rotate(8 131.553 74.3486)" fill="#D9D9D9"/>
<rect x="122.67" y="80.9144" width="67.6148" height="2" transform="rotate(8 122.67 80.9144)" fill="#D9D9D9"/>
<rect x="111.278" y="87" width="76.093" height="2" transform="rotate(8 111.278 87)" fill="#D9D9D9"/>
<rect x="108.278" y="95" width="76.093" height="2" transform="rotate(8 108.278 95)" fill="#D9D9D9"/>
<rect x="105.278" y="103" width="76.9635" height="2" transform="rotate(8 105.278 103)" fill="#D9D9D9"/>
<rect x="102.278" y="111" width="77.9383" height="2" transform="rotate(8 102.278 111)" fill="#D9D9D9"/>
<rect x="99.2783" y="119" width="78.3143" height="2" transform="rotate(8 99.2783 119)" fill="#D9D9D9"/>
</svg>
