<svg width="436" height="426" viewBox="0 0 436 426" fill="none" xmlns="http://www.w3.org/2000/svg">
<path fill-rule="evenodd" clip-rule="evenodd" d="M327.062 358.805C397.936 293.046 449.78 79.7774 219.797 48.2319C-10.1866 16.6859 20.2805 209.997 69.6333 282.751C118.986 355.506 256.189 424.563 327.062 358.805Z" fill="white"/>
<path d="M180.502 297.101C190.26 309.771 203.024 320.103 217.611 327.534" stroke="#F77A56" stroke-width="3"/>
<path d="M215.928 319.515L219.628 327.709L210.998 329.875" stroke="#F77A56" stroke-width="3" stroke-linecap="round"/>
<mask id="path-4-inside-1_2363_411" fill="white">
<path fill-rule="evenodd" clip-rule="evenodd" d="M59.4791 60.6327H210.071C210.161 60.6327 210.251 60.6352 210.341 60.6401C210.431 60.645 210.521 60.6524 210.61 60.6622C210.699 60.6721 210.789 60.6843 210.878 60.6991C210.967 60.7138 211.056 60.731 211.144 60.7505C211.232 60.7701 211.32 60.7921 211.408 60.8165C211.495 60.8409 211.581 60.8677 211.668 60.8968C211.754 60.9259 211.839 60.9574 211.924 60.9912C212.009 61.025 212.093 61.0612 212.176 61.0996C212.259 61.138 212.341 61.1787 212.423 61.2216C212.504 61.2645 212.584 61.3096 212.664 61.3569C212.743 61.4042 212.821 61.4537 212.898 61.5053C212.976 61.5569 213.052 61.6106 213.127 61.6664C213.202 61.7221 213.275 61.7799 213.348 61.8397C213.42 61.8995 213.491 61.9613 213.56 62.0249C213.63 62.0886 213.698 62.1542 213.765 62.2216C213.831 62.289 213.896 62.3582 213.96 62.4292C214.024 62.5001 214.086 62.5728 214.147 62.6472C214.207 62.7216 214.266 62.7976 214.323 62.8751C214.38 62.9527 214.435 63.0319 214.489 63.1125C214.543 63.1931 214.594 63.2751 214.644 63.3586C214.694 63.4421 214.742 63.5268 214.789 63.6129C214.835 63.699 214.879 63.7864 214.921 63.8749C214.964 63.9634 215.005 64.0531 215.043 64.1438C215.082 64.2345 215.118 64.3263 215.153 64.419C215.187 64.5118 215.219 64.6054 215.249 64.6999C215.28 64.7944 215.309 64.8897 215.335 64.9857C215.361 65.0818 215.385 65.1785 215.406 65.2759C215.428 65.3733 215.448 65.4712 215.465 65.5696C215.483 65.6681 215.499 65.7669 215.511 65.8662C215.525 65.9655 215.536 66.0651 215.544 66.165C215.554 66.2649 215.56 66.365 215.564 66.4653C215.569 66.5655 215.571 66.6658 215.571 66.7662V276.1C215.571 276.2 215.569 276.301 215.564 276.401C215.56 276.502 215.554 276.602 215.544 276.701C215.536 276.801 215.525 276.901 215.511 277C215.499 277.1 215.483 277.198 215.465 277.296C215.448 277.395 215.428 277.493 215.406 277.591C215.385 277.688 215.361 277.785 215.335 277.881C215.309 277.977 215.28 278.072 215.249 278.167C215.219 278.261 215.187 278.355 215.153 278.447C215.118 278.54 215.082 278.632 215.043 278.723C215.005 278.813 214.964 278.903 214.921 278.992C214.879 279.08 214.835 279.167 214.789 279.253C214.742 279.34 214.694 279.425 214.644 279.508C214.594 279.591 214.543 279.673 214.489 279.754C214.435 279.835 214.38 279.914 214.323 279.992C214.266 280.069 214.207 280.145 214.147 280.219C214.086 280.294 214.024 280.366 213.96 280.437C213.896 280.508 213.831 280.578 213.765 280.645C213.698 280.713 213.63 280.778 213.56 280.841C213.491 280.905 213.42 280.967 213.348 281.027C213.275 281.087 213.202 281.144 213.127 281.2C213.052 281.256 212.976 281.31 212.898 281.361C212.821 281.413 212.743 281.462 212.664 281.509C212.584 281.557 212.504 281.602 212.423 281.645C212.341 281.688 212.259 281.728 212.176 281.767C212.093 281.805 212.009 281.841 211.924 281.875C211.839 281.909 211.754 281.941 211.668 281.97C211.581 281.999 211.495 282.026 211.408 282.05C211.32 282.074 211.232 282.096 211.144 282.116C211.056 282.136 210.967 282.153 210.878 282.167C210.789 282.182 210.699 282.194 210.61 282.204C210.521 282.214 210.431 282.222 210.341 282.226C210.251 282.231 210.161 282.234 210.071 282.234H59.4791C59.3891 282.234 59.2991 282.231 59.2092 282.226C59.1193 282.222 59.0296 282.214 58.94 282.204C58.8504 282.194 58.7611 282.182 58.672 282.167C58.583 282.153 58.4943 282.136 58.406 282.116C58.3177 282.096 58.2299 282.074 58.1426 282.05C58.0553 282.026 57.9686 281.999 57.8824 281.97C57.7963 281.941 57.7108 281.909 57.6261 281.875C57.5413 281.841 57.4574 281.805 57.3742 281.767C57.291 281.728 57.2088 281.688 57.1274 281.645C57.046 281.602 56.9656 281.557 56.8863 281.509C56.8069 281.462 56.7286 281.413 56.6514 281.361C56.5741 281.31 56.4981 281.256 56.4233 281.2C56.3484 281.144 56.2748 281.087 56.2025 281.027C56.1302 280.967 56.0593 280.905 55.9897 280.841C55.9201 280.778 55.852 280.713 55.7853 280.645C55.7186 280.578 55.6534 280.508 55.5898 280.437C55.5261 280.366 55.4641 280.294 55.4036 280.219C55.3432 280.145 55.2844 280.069 55.2273 279.992C55.1702 279.914 55.1148 279.835 55.0612 279.754C55.0076 279.673 54.9557 279.591 54.9057 279.508C54.8557 279.425 54.8076 279.34 54.7613 279.253C54.715 279.167 54.6707 279.08 54.6282 278.992C54.5858 278.903 54.5453 278.813 54.5069 278.723C54.4684 278.632 54.4319 278.54 54.3974 278.447C54.363 278.355 54.3306 278.261 54.3003 278.167C54.27 278.072 54.2417 277.977 54.2156 277.881C54.1895 277.785 54.1655 277.688 54.1436 277.591C54.1217 277.493 54.102 277.395 54.0844 277.296C54.0669 277.198 54.0515 277.1 54.0383 277C54.0251 276.901 54.0141 276.801 54.0052 276.701C53.9964 276.602 53.9898 276.502 53.9854 276.401C53.981 276.301 53.9788 276.2 53.9788 276.1V66.7662C53.9788 66.6658 53.981 66.5655 53.9854 66.4653C53.9898 66.365 53.9964 66.2649 54.0052 66.165C54.0141 66.0651 54.0251 65.9655 54.0383 65.8662C54.0515 65.7669 54.0669 65.6681 54.0844 65.5696C54.102 65.4712 54.1217 65.3733 54.1436 65.2759C54.1655 65.1785 54.1895 65.0818 54.2156 64.9857C54.2417 64.8897 54.27 64.7944 54.3003 64.6999C54.3306 64.6054 54.363 64.5118 54.3974 64.419C54.4319 64.3263 54.4684 64.2345 54.5069 64.1438C54.5453 64.0531 54.5858 63.9634 54.6282 63.8749C54.6707 63.7864 54.715 63.699 54.7613 63.6129C54.8076 63.5268 54.8557 63.4421 54.9057 63.3586C54.9557 63.2751 55.0076 63.1931 55.0612 63.1125C55.1148 63.0319 55.1702 62.9527 55.2273 62.8751C55.2844 62.7976 55.3432 62.7216 55.4036 62.6472C55.4641 62.5728 55.5261 62.5001 55.5898 62.4292C55.6534 62.3582 55.7186 62.289 55.7853 62.2216C55.852 62.1542 55.9201 62.0886 55.9897 62.0249C56.0593 61.9613 56.1302 61.8995 56.2025 61.8397C56.2748 61.7799 56.3484 61.7221 56.4233 61.6664C56.4981 61.6106 56.5741 61.5569 56.6514 61.5053C56.7286 61.4537 56.8069 61.4042 56.8863 61.3569C56.9656 61.3096 57.046 61.2645 57.1274 61.2216C57.2088 61.1787 57.291 61.138 57.3742 61.0996C57.4574 61.0612 57.5413 61.025 57.6261 60.9912C57.7108 60.9574 57.7963 60.9259 57.8824 60.8968C57.9686 60.8677 58.0553 60.8409 58.1426 60.8165C58.2299 60.7921 58.3177 60.7701 58.406 60.7505C58.4943 60.731 58.583 60.7138 58.672 60.6991C58.7611 60.6843 58.8504 60.6721 58.94 60.6622C59.0296 60.6524 59.1193 60.645 59.2092 60.6401C59.2991 60.6352 59.3891 60.6327 59.4791 60.6327Z"/>
</mask>
<path fill-rule="evenodd" clip-rule="evenodd" d="M59.4791 60.6327H210.071C210.161 60.6327 210.251 60.6352 210.341 60.6401C210.431 60.645 210.521 60.6524 210.61 60.6622C210.699 60.6721 210.789 60.6843 210.878 60.6991C210.967 60.7138 211.056 60.731 211.144 60.7505C211.232 60.7701 211.32 60.7921 211.408 60.8165C211.495 60.8409 211.581 60.8677 211.668 60.8968C211.754 60.9259 211.839 60.9574 211.924 60.9912C212.009 61.025 212.093 61.0612 212.176 61.0996C212.259 61.138 212.341 61.1787 212.423 61.2216C212.504 61.2645 212.584 61.3096 212.664 61.3569C212.743 61.4042 212.821 61.4537 212.898 61.5053C212.976 61.5569 213.052 61.6106 213.127 61.6664C213.202 61.7221 213.275 61.7799 213.348 61.8397C213.42 61.8995 213.491 61.9613 213.56 62.0249C213.63 62.0886 213.698 62.1542 213.765 62.2216C213.831 62.289 213.896 62.3582 213.96 62.4292C214.024 62.5001 214.086 62.5728 214.147 62.6472C214.207 62.7216 214.266 62.7976 214.323 62.8751C214.38 62.9527 214.435 63.0319 214.489 63.1125C214.543 63.1931 214.594 63.2751 214.644 63.3586C214.694 63.4421 214.742 63.5268 214.789 63.6129C214.835 63.699 214.879 63.7864 214.921 63.8749C214.964 63.9634 215.005 64.0531 215.043 64.1438C215.082 64.2345 215.118 64.3263 215.153 64.419C215.187 64.5118 215.219 64.6054 215.249 64.6999C215.28 64.7944 215.309 64.8897 215.335 64.9857C215.361 65.0818 215.385 65.1785 215.406 65.2759C215.428 65.3733 215.448 65.4712 215.465 65.5696C215.483 65.6681 215.499 65.7669 215.511 65.8662C215.525 65.9655 215.536 66.0651 215.544 66.165C215.554 66.2649 215.56 66.365 215.564 66.4653C215.569 66.5655 215.571 66.6658 215.571 66.7662V276.1C215.571 276.2 215.569 276.301 215.564 276.401C215.56 276.502 215.554 276.602 215.544 276.701C215.536 276.801 215.525 276.901 215.511 277C215.499 277.1 215.483 277.198 215.465 277.296C215.448 277.395 215.428 277.493 215.406 277.591C215.385 277.688 215.361 277.785 215.335 277.881C215.309 277.977 215.28 278.072 215.249 278.167C215.219 278.261 215.187 278.355 215.153 278.447C215.118 278.54 215.082 278.632 215.043 278.723C215.005 278.813 214.964 278.903 214.921 278.992C214.879 279.08 214.835 279.167 214.789 279.253C214.742 279.34 214.694 279.425 214.644 279.508C214.594 279.591 214.543 279.673 214.489 279.754C214.435 279.835 214.38 279.914 214.323 279.992C214.266 280.069 214.207 280.145 214.147 280.219C214.086 280.294 214.024 280.366 213.96 280.437C213.896 280.508 213.831 280.578 213.765 280.645C213.698 280.713 213.63 280.778 213.56 280.841C213.491 280.905 213.42 280.967 213.348 281.027C213.275 281.087 213.202 281.144 213.127 281.2C213.052 281.256 212.976 281.31 212.898 281.361C212.821 281.413 212.743 281.462 212.664 281.509C212.584 281.557 212.504 281.602 212.423 281.645C212.341 281.688 212.259 281.728 212.176 281.767C212.093 281.805 212.009 281.841 211.924 281.875C211.839 281.909 211.754 281.941 211.668 281.97C211.581 281.999 211.495 282.026 211.408 282.05C211.32 282.074 211.232 282.096 211.144 282.116C211.056 282.136 210.967 282.153 210.878 282.167C210.789 282.182 210.699 282.194 210.61 282.204C210.521 282.214 210.431 282.222 210.341 282.226C210.251 282.231 210.161 282.234 210.071 282.234H59.4791C59.3891 282.234 59.2991 282.231 59.2092 282.226C59.1193 282.222 59.0296 282.214 58.94 282.204C58.8504 282.194 58.7611 282.182 58.672 282.167C58.583 282.153 58.4943 282.136 58.406 282.116C58.3177 282.096 58.2299 282.074 58.1426 282.05C58.0553 282.026 57.9686 281.999 57.8824 281.97C57.7963 281.941 57.7108 281.909 57.6261 281.875C57.5413 281.841 57.4574 281.805 57.3742 281.767C57.291 281.728 57.2088 281.688 57.1274 281.645C57.046 281.602 56.9656 281.557 56.8863 281.509C56.8069 281.462 56.7286 281.413 56.6514 281.361C56.5741 281.31 56.4981 281.256 56.4233 281.2C56.3484 281.144 56.2748 281.087 56.2025 281.027C56.1302 280.967 56.0593 280.905 55.9897 280.841C55.9201 280.778 55.852 280.713 55.7853 280.645C55.7186 280.578 55.6534 280.508 55.5898 280.437C55.5261 280.366 55.4641 280.294 55.4036 280.219C55.3432 280.145 55.2844 280.069 55.2273 279.992C55.1702 279.914 55.1148 279.835 55.0612 279.754C55.0076 279.673 54.9557 279.591 54.9057 279.508C54.8557 279.425 54.8076 279.34 54.7613 279.253C54.715 279.167 54.6707 279.08 54.6282 278.992C54.5858 278.903 54.5453 278.813 54.5069 278.723C54.4684 278.632 54.4319 278.54 54.3974 278.447C54.363 278.355 54.3306 278.261 54.3003 278.167C54.27 278.072 54.2417 277.977 54.2156 277.881C54.1895 277.785 54.1655 277.688 54.1436 277.591C54.1217 277.493 54.102 277.395 54.0844 277.296C54.0669 277.198 54.0515 277.1 54.0383 277C54.0251 276.901 54.0141 276.801 54.0052 276.701C53.9964 276.602 53.9898 276.502 53.9854 276.401C53.981 276.301 53.9788 276.2 53.9788 276.1V66.7662C53.9788 66.6658 53.981 66.5655 53.9854 66.4653C53.9898 66.365 53.9964 66.2649 54.0052 66.165C54.0141 66.0651 54.0251 65.9655 54.0383 65.8662C54.0515 65.7669 54.0669 65.6681 54.0844 65.5696C54.102 65.4712 54.1217 65.3733 54.1436 65.2759C54.1655 65.1785 54.1895 65.0818 54.2156 64.9857C54.2417 64.8897 54.27 64.7944 54.3003 64.6999C54.3306 64.6054 54.363 64.5118 54.3974 64.419C54.4319 64.3263 54.4684 64.2345 54.5069 64.1438C54.5453 64.0531 54.5858 63.9634 54.6282 63.8749C54.6707 63.7864 54.715 63.699 54.7613 63.6129C54.8076 63.5268 54.8557 63.4421 54.9057 63.3586C54.9557 63.2751 55.0076 63.1931 55.0612 63.1125C55.1148 63.0319 55.1702 62.9527 55.2273 62.8751C55.2844 62.7976 55.3432 62.7216 55.4036 62.6472C55.4641 62.5728 55.5261 62.5001 55.5898 62.4292C55.6534 62.3582 55.7186 62.289 55.7853 62.2216C55.852 62.1542 55.9201 62.0886 55.9897 62.0249C56.0593 61.9613 56.1302 61.8995 56.2025 61.8397C56.2748 61.7799 56.3484 61.7221 56.4233 61.6664C56.4981 61.6106 56.5741 61.5569 56.6514 61.5053C56.7286 61.4537 56.8069 61.4042 56.8863 61.3569C56.9656 61.3096 57.046 61.2645 57.1274 61.2216C57.2088 61.1787 57.291 61.138 57.3742 61.0996C57.4574 61.0612 57.5413 61.025 57.6261 60.9912C57.7108 60.9574 57.7963 60.9259 57.8824 60.8968C57.9686 60.8677 58.0553 60.8409 58.1426 60.8165C58.2299 60.7921 58.3177 60.7701 58.406 60.7505C58.4943 60.731 58.583 60.7138 58.672 60.6991C58.7611 60.6843 58.8504 60.6721 58.94 60.6622C59.0296 60.6524 59.1193 60.645 59.2092 60.6401C59.2991 60.6352 59.3891 60.6327 59.4791 60.6327Z" fill="white" stroke="black" stroke-width="8" mask="url(#path-4-inside-1_2363_411)"/>
<path fill-rule="evenodd" clip-rule="evenodd" d="M74.6069 92.0262H190.817C190.907 92.0262 190.997 92.0302 191.087 92.0381C191.176 92.046 191.265 92.0578 191.354 92.0735C191.442 92.0893 191.529 92.1088 191.616 92.1322C191.702 92.1556 191.786 92.1828 191.869 92.2136C191.953 92.2445 192.034 92.2789 192.114 92.3169C192.193 92.3549 192.27 92.3963 192.345 92.4411C192.42 92.4859 192.492 92.5339 192.562 92.585C192.632 92.6362 192.698 92.6902 192.762 92.7472C192.826 92.8042 192.886 92.8639 192.943 92.9262C193 92.9886 193.054 93.0532 193.104 93.1203C193.154 93.1873 193.2 93.2564 193.243 93.3275C193.285 93.3986 193.323 93.4714 193.358 93.5458C193.393 93.6203 193.423 93.6961 193.449 93.7733C193.475 93.8504 193.497 93.9286 193.514 94.0076C193.532 94.0867 193.545 94.1664 193.554 94.2466C193.563 94.3268 193.567 94.4072 193.567 94.4879V160.354C193.567 160.434 193.563 160.515 193.554 160.595C193.545 160.675 193.532 160.755 193.514 160.834C193.497 160.913 193.475 160.991 193.449 161.069C193.423 161.146 193.393 161.221 193.358 161.296C193.323 161.37 193.285 161.443 193.243 161.514C193.2 161.585 193.154 161.654 193.104 161.722C193.054 161.789 193 161.853 192.943 161.916C192.886 161.978 192.826 162.038 192.762 162.095C192.698 162.152 192.632 162.206 192.562 162.257C192.492 162.308 192.42 162.356 192.345 162.401C192.27 162.445 192.193 162.487 192.114 162.525C192.034 162.563 191.953 162.597 191.869 162.628C191.786 162.659 191.702 162.686 191.616 162.71C191.529 162.733 191.442 162.752 191.354 162.768C191.265 162.784 191.176 162.796 191.087 162.804C190.997 162.812 190.907 162.815 190.817 162.815H74.6069C74.5168 162.815 74.427 162.812 74.3373 162.804C74.2477 162.796 74.1587 162.784 74.0704 162.768C73.9821 162.752 73.8948 162.733 73.8086 162.71C73.7225 162.686 73.6378 162.659 73.5546 162.628C73.4714 162.597 73.39 162.563 73.3106 162.525C73.2312 162.487 73.154 162.445 73.0792 162.401C73.0043 162.356 72.932 162.308 72.8624 162.257C72.7928 162.206 72.7261 162.152 72.6625 162.095C72.5988 162.038 72.5384 161.978 72.4812 161.916C72.4241 161.853 72.3705 161.789 72.3205 161.722C72.2704 161.654 72.2242 161.585 72.1818 161.514C72.1393 161.443 72.1008 161.37 72.0664 161.296C72.0319 161.221 72.0016 161.146 71.9755 161.069C71.9493 160.991 71.9275 160.913 71.9099 160.834C71.8923 160.755 71.8791 160.675 71.8703 160.595C71.8615 160.515 71.8571 160.434 71.8571 160.354V94.4879C71.8571 94.4072 71.8615 94.3268 71.8703 94.2466C71.8791 94.1664 71.8923 94.0867 71.9099 94.0076C71.9275 93.9286 71.9493 93.8504 71.9755 93.7733C72.0016 93.6961 72.0319 93.6203 72.0664 93.5458C72.1008 93.4714 72.1393 93.3986 72.1818 93.3275C72.2242 93.2564 72.2704 93.1873 72.3205 93.1203C72.3705 93.0532 72.4241 92.9886 72.4812 92.9262C72.5384 92.8639 72.5988 92.8042 72.6625 92.7472C72.7261 92.6902 72.7928 92.6362 72.8624 92.585C72.932 92.5339 73.0043 92.4859 73.0792 92.4411C73.154 92.3963 73.2312 92.3549 73.3106 92.3169C73.39 92.2789 73.4714 92.2445 73.5546 92.2136C73.6378 92.1828 73.7225 92.1556 73.8086 92.1322C73.8948 92.1088 73.9821 92.0893 74.0704 92.0735C74.1587 92.0578 74.2477 92.046 74.3373 92.0381C74.427 92.0302 74.5168 92.0262 74.6069 92.0262Z" fill="#F7F1E9"/>
<path fill-rule="evenodd" clip-rule="evenodd" d="M74.6069 223.756H124.117C124.208 223.756 124.297 223.76 124.387 223.768C124.477 223.775 124.566 223.787 124.654 223.803C124.742 223.819 124.83 223.838 124.916 223.862C125.002 223.885 125.087 223.912 125.17 223.943C125.253 223.974 125.334 224.008 125.414 224.046C125.493 224.084 125.57 224.126 125.645 224.171C125.72 224.215 125.792 224.263 125.862 224.314C125.932 224.366 125.998 224.42 126.062 224.477C126.126 224.534 126.186 224.593 126.243 224.656C126.3 224.718 126.354 224.783 126.404 224.85C126.454 224.917 126.5 224.986 126.543 225.057C126.585 225.128 126.623 225.201 126.658 225.275C126.692 225.35 126.723 225.426 126.749 225.503C126.775 225.58 126.797 225.658 126.814 225.737C126.832 225.816 126.845 225.896 126.854 225.976C126.863 226.056 126.867 226.137 126.867 226.217V267.461C126.867 267.542 126.863 267.622 126.854 267.702C126.845 267.783 126.832 267.862 126.814 267.941C126.797 268.02 126.775 268.098 126.749 268.176C126.723 268.253 126.692 268.329 126.658 268.403C126.623 268.478 126.585 268.55 126.543 268.621C126.5 268.693 126.454 268.762 126.404 268.829C126.354 268.896 126.3 268.96 126.243 269.023C126.186 269.085 126.126 269.145 126.062 269.202C125.998 269.259 125.932 269.313 125.862 269.364C125.792 269.415 125.72 269.463 125.645 269.508C125.57 269.553 125.493 269.594 125.414 269.632C125.334 269.67 125.253 269.704 125.17 269.735C125.087 269.766 125.002 269.793 124.916 269.817C124.83 269.84 124.742 269.86 124.654 269.875C124.566 269.891 124.477 269.903 124.387 269.911C124.297 269.919 124.208 269.923 124.117 269.923H74.6069C74.5168 269.923 74.427 269.919 74.3373 269.911C74.2477 269.903 74.1587 269.891 74.0704 269.875C73.9821 269.86 73.8948 269.84 73.8086 269.817C73.7225 269.793 73.6378 269.766 73.5546 269.735C73.4714 269.704 73.39 269.67 73.3106 269.632C73.2312 269.594 73.154 269.553 73.0792 269.508C73.0043 269.463 72.932 269.415 72.8624 269.364C72.7928 269.313 72.7261 269.259 72.6625 269.202C72.5988 269.145 72.5384 269.085 72.4812 269.023C72.4241 268.96 72.3705 268.896 72.3205 268.829C72.2704 268.762 72.2242 268.693 72.1818 268.621C72.1393 268.55 72.1008 268.478 72.0664 268.403C72.0319 268.329 72.0016 268.253 71.9755 268.176C71.9493 268.098 71.9275 268.02 71.9099 267.941C71.8923 267.862 71.8791 267.783 71.8703 267.702C71.8615 267.622 71.8571 267.542 71.8571 267.461V226.217C71.8571 226.137 71.8615 226.056 71.8703 225.976C71.8791 225.896 71.8923 225.816 71.9099 225.737C71.9275 225.658 71.9493 225.58 71.9755 225.503C72.0016 225.426 72.0319 225.35 72.0664 225.275C72.1008 225.201 72.1393 225.128 72.1818 225.057C72.2242 224.986 72.2704 224.917 72.3205 224.85C72.3705 224.783 72.4241 224.718 72.4812 224.656C72.5384 224.593 72.5988 224.534 72.6625 224.477C72.7261 224.42 72.7928 224.366 72.8624 224.314C72.932 224.263 73.0043 224.215 73.0792 224.171C73.154 224.126 73.2312 224.084 73.3106 224.046C73.39 224.008 73.4714 223.974 73.5546 223.943C73.6378 223.912 73.7225 223.885 73.8086 223.862C73.8948 223.838 73.9821 223.819 74.0704 223.803C74.1587 223.787 74.2477 223.775 74.3373 223.768C74.427 223.76 74.5168 223.756 74.6069 223.756Z" fill="#E2DDF3"/>
<path fill-rule="evenodd" clip-rule="evenodd" d="M71.9727 201.784H120.107V203.015H71.9727V201.784Z" fill="black"/>
<path fill-rule="evenodd" clip-rule="evenodd" d="M150.361 198.091H184.744C184.902 198.091 185.059 198.094 185.217 198.101C185.374 198.108 185.531 198.118 185.688 198.132C185.844 198.146 186.001 198.163 186.157 198.184C186.312 198.205 186.468 198.229 186.622 198.256C186.777 198.284 186.93 198.315 187.083 198.349C187.236 198.383 187.388 198.421 187.539 198.462C187.689 198.503 187.839 198.547 187.987 198.594C188.135 198.642 188.282 198.693 188.428 198.747C188.574 198.801 188.717 198.858 188.86 198.918C189.002 198.978 189.143 199.042 189.282 199.108C189.421 199.175 189.558 199.244 189.693 199.317C189.828 199.389 189.961 199.465 190.092 199.543C190.223 199.621 190.352 199.703 190.478 199.787C190.605 199.871 190.729 199.957 190.851 200.047C190.973 200.136 191.092 200.228 191.209 200.323C191.325 200.418 191.44 200.515 191.551 200.615C191.662 200.714 191.771 200.817 191.877 200.921C191.983 201.025 192.085 201.132 192.185 201.241C192.285 201.35 192.382 201.461 192.476 201.575C192.57 201.688 192.66 201.803 192.748 201.921C192.836 202.038 192.92 202.157 193.001 202.278C193.082 202.399 193.159 202.521 193.234 202.646C193.308 202.77 193.379 202.896 193.446 203.024C193.513 203.151 193.577 203.28 193.638 203.41C193.698 203.541 193.755 203.672 193.808 203.805C193.861 203.938 193.91 204.072 193.956 204.207C194.002 204.341 194.044 204.477 194.082 204.614C194.12 204.751 194.155 204.889 194.185 205.027C194.216 205.165 194.243 205.304 194.266 205.444C194.289 205.583 194.309 205.723 194.324 205.863C194.339 206.004 194.351 206.144 194.359 206.285C194.366 206.426 194.37 206.567 194.37 206.708V206.709C194.37 206.85 194.366 206.991 194.359 207.132C194.351 207.273 194.339 207.413 194.324 207.554C194.309 207.694 194.289 207.834 194.266 207.974C194.243 208.113 194.216 208.252 194.185 208.39C194.155 208.529 194.12 208.666 194.082 208.803C194.044 208.94 194.002 209.076 193.956 209.211C193.91 209.346 193.861 209.479 193.808 209.612C193.755 209.745 193.698 209.877 193.638 210.007C193.577 210.137 193.513 210.266 193.446 210.393C193.379 210.521 193.308 210.647 193.234 210.771C193.159 210.896 193.082 211.018 193.001 211.139C192.92 211.26 192.836 211.379 192.748 211.497C192.66 211.614 192.57 211.729 192.476 211.842C192.382 211.956 192.285 212.067 192.185 212.176C192.085 212.285 191.983 212.392 191.877 212.496C191.771 212.601 191.662 212.703 191.551 212.802C191.44 212.902 191.325 212.999 191.209 213.094C191.092 213.189 190.973 213.281 190.851 213.37C190.729 213.46 190.605 213.547 190.478 213.631C190.352 213.715 190.223 213.796 190.092 213.874C189.961 213.952 189.828 214.028 189.693 214.1C189.558 214.173 189.421 214.242 189.282 214.309C189.143 214.375 189.002 214.439 188.86 214.499C188.717 214.559 188.574 214.616 188.428 214.67C188.282 214.724 188.135 214.775 187.987 214.823C187.839 214.87 187.689 214.914 187.539 214.955C187.388 214.996 187.236 215.034 187.083 215.068C186.93 215.102 186.777 215.133 186.622 215.161C186.468 215.188 186.312 215.212 186.157 215.233C186.001 215.254 185.844 215.271 185.688 215.285C185.531 215.299 185.374 215.309 185.217 215.316C185.059 215.323 184.902 215.326 184.744 215.326H150.361C150.204 215.326 150.046 215.323 149.889 215.316C149.732 215.309 149.575 215.299 149.418 215.285C149.261 215.271 149.105 215.254 148.949 215.233C148.793 215.212 148.638 215.188 148.483 215.161C148.329 215.133 148.175 215.102 148.022 215.068C147.87 215.034 147.718 214.996 147.567 214.955C147.416 214.914 147.267 214.87 147.119 214.823C146.97 214.775 146.823 214.724 146.678 214.67C146.532 214.616 146.388 214.559 146.246 214.499C146.103 214.439 145.963 214.375 145.824 214.309C145.685 214.242 145.548 214.173 145.413 214.1C145.278 214.028 145.144 213.952 145.013 213.874C144.882 213.796 144.754 213.715 144.627 213.631C144.501 213.547 144.376 213.46 144.255 213.37C144.133 213.281 144.014 213.189 143.897 213.094C143.78 212.999 143.666 212.902 143.555 212.802C143.443 212.703 143.335 212.601 143.229 212.496C143.123 212.392 143.02 212.285 142.92 212.176C142.82 212.067 142.724 211.956 142.63 211.842C142.536 211.729 142.445 211.614 142.358 211.497C142.27 211.379 142.186 211.26 142.105 211.139C142.024 211.018 141.946 210.896 141.872 210.771C141.798 210.647 141.727 210.521 141.66 210.393C141.592 210.266 141.528 210.137 141.468 210.007C141.408 209.877 141.351 209.745 141.298 209.612C141.245 209.479 141.196 209.346 141.15 209.211C141.104 209.076 141.062 208.94 141.024 208.803C140.986 208.666 140.951 208.529 140.92 208.39C140.89 208.252 140.863 208.113 140.84 207.974C140.816 207.834 140.797 207.694 140.782 207.554C140.766 207.413 140.755 207.273 140.747 207.132C140.739 206.991 140.735 206.85 140.735 206.709V206.708C140.735 206.567 140.739 206.426 140.747 206.285C140.755 206.144 140.766 206.004 140.782 205.863C140.797 205.723 140.816 205.583 140.84 205.444C140.863 205.304 140.89 205.165 140.92 205.027C140.951 204.889 140.986 204.751 141.024 204.614C141.062 204.477 141.104 204.341 141.15 204.207C141.196 204.072 141.245 203.938 141.298 203.805C141.351 203.672 141.408 203.541 141.468 203.41C141.528 203.28 141.592 203.151 141.66 203.024C141.727 202.896 141.798 202.77 141.872 202.646C141.946 202.521 142.024 202.399 142.105 202.278C142.186 202.157 142.27 202.038 142.358 201.921C142.445 201.803 142.536 201.688 142.63 201.575C142.724 201.461 142.82 201.35 142.92 201.241C143.02 201.132 143.123 201.025 143.229 200.921C143.335 200.817 143.443 200.714 143.555 200.615C143.666 200.515 143.78 200.418 143.897 200.323C144.014 200.228 144.133 200.136 144.255 200.047C144.376 199.957 144.501 199.871 144.627 199.787C144.754 199.703 144.882 199.621 145.013 199.543C145.144 199.465 145.278 199.389 145.413 199.317C145.548 199.244 145.685 199.175 145.824 199.108C145.963 199.042 146.103 198.978 146.246 198.918C146.388 198.858 146.532 198.801 146.678 198.747C146.823 198.693 146.97 198.642 147.119 198.594C147.267 198.547 147.416 198.503 147.567 198.462C147.718 198.421 147.87 198.383 148.022 198.349C148.175 198.315 148.329 198.284 148.483 198.256C148.638 198.229 148.793 198.205 148.949 198.184C149.105 198.163 149.261 198.146 149.418 198.132C149.575 198.118 149.732 198.108 149.889 198.101C150.046 198.094 150.204 198.091 150.361 198.091Z" fill="#E8E8E8"/>
<path fill-rule="evenodd" clip-rule="evenodd" d="M140.62 236.067H192.192V237.298H140.62V236.067Z" fill="black"/>
<path fill-rule="evenodd" clip-rule="evenodd" d="M142.683 252.687H194.255V253.918H142.683V252.687Z" fill="black"/>
<path d="M80.6229 75.1354C82.0096 75.1354 83.0282 75.4448 83.6789 76.0634C84.3296 76.6821 84.6549 77.5354 84.6549 78.6234C84.6549 79.1141 84.5856 79.5834 84.4469 80.0314C84.3082 80.4688 84.0736 80.8634 83.7429 81.2154C83.4229 81.5674 82.9962 81.8448 82.4629 82.0474C81.9296 82.2501 81.2736 82.3514 80.4949 82.3514H79.4709V86.5594H77.3269V75.1354H80.6229ZM80.5429 76.8314H79.4709V80.6554H80.2709C80.7402 80.6554 81.1402 80.5914 81.4709 80.4634C81.8016 80.3248 82.0522 80.1114 82.2229 79.8234C82.4042 79.5354 82.4949 79.1621 82.4949 78.7034C82.4949 78.0741 82.3349 77.6048 82.0149 77.2954C81.6949 76.9861 81.2042 76.8314 80.5429 76.8314ZM89.9663 77.7274C91.0116 77.7274 91.8116 77.9728 92.3663 78.4634C92.921 78.9434 93.1983 79.7008 93.1983 80.7354V86.5594H91.7103L91.2943 85.3594H91.2303C90.9956 85.6688 90.7556 85.9301 90.5103 86.1434C90.265 86.3461 89.9823 86.4901 89.6623 86.5754C89.3423 86.6714 88.9583 86.7194 88.5103 86.7194C88.0303 86.7194 87.5983 86.6234 87.2143 86.4314C86.8303 86.2394 86.5263 85.9461 86.3023 85.5514C86.0783 85.1461 85.9663 84.6394 85.9663 84.0314C85.9663 83.1354 86.2756 82.4634 86.8943 82.0154C87.513 81.5568 88.441 81.3061 89.6783 81.2634L91.0703 81.2154V80.7834C91.0703 80.2288 90.953 79.8341 90.7183 79.5994C90.4836 79.3648 90.1636 79.2474 89.7583 79.2474C89.3743 79.2474 88.985 79.3114 88.5903 79.4394C88.2063 79.5674 87.8276 79.7168 87.4543 79.8874L86.7983 78.4794C87.2356 78.2554 87.721 78.0741 88.2543 77.9354C88.7876 77.7968 89.3583 77.7274 89.9663 77.7274ZM90.1743 82.4954C89.417 82.5274 88.889 82.6821 88.5903 82.9594C88.2916 83.2261 88.1423 83.5888 88.1423 84.0474C88.1423 84.4528 88.2436 84.7461 88.4463 84.9274C88.6596 85.1088 88.937 85.1994 89.2783 85.1994C89.7796 85.1994 90.2063 85.0341 90.5583 84.7034C90.9103 84.3621 91.0863 83.8608 91.0863 83.1994V82.4634L90.1743 82.4954ZM99.9274 77.7274C100.866 77.7274 101.618 78.1061 102.183 78.8634C102.759 79.6101 103.047 80.7248 103.047 82.2074C103.047 83.1888 102.914 84.0154 102.647 84.6874C102.381 85.3594 102.007 85.8661 101.527 86.2074C101.047 86.5488 100.493 86.7194 99.8634 86.7194C99.4687 86.7194 99.1221 86.6661 98.8234 86.5594C98.5354 86.4421 98.2901 86.2981 98.0874 86.1274C97.8847 85.9461 97.7141 85.7541 97.5754 85.5514H97.4634C97.4954 85.7434 97.5221 85.9621 97.5434 86.2074C97.5647 86.4421 97.5754 86.6661 97.5754 86.8794V90.3994H95.4474V77.8874H97.1754L97.4634 79.0394H97.5754C97.7247 78.7941 97.9007 78.5754 98.1034 78.3834C98.3167 78.1808 98.5727 78.0208 98.8714 77.9034C99.1701 77.7861 99.5221 77.7274 99.9274 77.7274ZM99.2554 79.3594C98.8501 79.3594 98.5194 79.4554 98.2634 79.6474C98.0181 79.8288 97.8421 80.1114 97.7354 80.4954C97.6287 80.8794 97.5754 81.3594 97.5754 81.9354V82.1914C97.5754 82.8101 97.6234 83.3328 97.7194 83.7594C97.8261 84.1861 98.0021 84.5114 98.2474 84.7354C98.5034 84.9594 98.8501 85.0714 99.2874 85.0714C99.6501 85.0714 99.9487 84.9541 100.183 84.7194C100.418 84.4848 100.594 84.1541 100.711 83.7274C100.829 83.2901 100.887 82.7728 100.887 82.1754C100.887 81.2794 100.749 80.5861 100.471 80.0954C100.205 79.6048 99.7994 79.3594 99.2554 79.3594ZM108.324 77.7274C109.071 77.7274 109.711 77.8874 110.244 78.2074C110.788 78.5168 111.209 78.9648 111.508 79.5514C111.807 80.1274 111.956 80.8314 111.956 81.6634V82.6874H106.644C106.665 83.4768 106.857 84.0901 107.22 84.5274C107.593 84.9541 108.116 85.1674 108.788 85.1674C109.321 85.1674 109.796 85.1141 110.212 85.0074C110.628 84.8901 111.06 84.7248 111.508 84.5114V86.1274C111.103 86.3301 110.681 86.4794 110.244 86.5754C109.807 86.6714 109.268 86.7194 108.628 86.7194C107.817 86.7194 107.097 86.5594 106.468 86.2394C105.849 85.9088 105.364 85.4128 105.012 84.7514C104.66 84.0901 104.484 83.2688 104.484 82.2874C104.484 81.2954 104.644 80.4634 104.964 79.7914C105.284 79.1088 105.732 78.5968 106.308 78.2554C106.895 77.9034 107.567 77.7274 108.324 77.7274ZM108.356 79.2154C107.876 79.2154 107.487 79.3914 107.188 79.7434C106.9 80.0848 106.729 80.5968 106.676 81.2794H109.94C109.94 80.8741 109.881 80.5168 109.764 80.2074C109.647 79.8981 109.471 79.6581 109.236 79.4874C109.012 79.3061 108.719 79.2154 108.356 79.2154ZM118.208 77.7274C118.357 77.7274 118.512 77.7328 118.672 77.7434C118.832 77.7541 118.965 77.7754 119.072 77.8074L118.88 79.6794C118.773 79.6581 118.645 79.6421 118.496 79.6314C118.357 79.6101 118.208 79.5994 118.048 79.5994C117.781 79.5994 117.52 79.6528 117.264 79.7594C117.008 79.8554 116.778 80.0048 116.576 80.2074C116.373 80.3994 116.208 80.6501 116.08 80.9594C115.962 81.2688 115.904 81.6368 115.904 82.0634V86.5594H113.776V77.8874H115.408L115.696 79.3914H115.808C115.968 79.0821 116.165 78.8048 116.4 78.5594C116.645 78.3034 116.917 78.1008 117.216 77.9514C117.525 77.8021 117.856 77.7274 118.208 77.7274ZM131.185 86.5594L130.305 83.5354H126.401L125.521 86.5594H123.217L127.057 75.0874H129.633L133.489 86.5594H131.185ZM128.881 78.8314C128.839 78.6608 128.78 78.4581 128.705 78.2234C128.641 77.9781 128.577 77.7274 128.513 77.4714C128.46 77.2154 128.407 76.9754 128.353 76.7514C128.311 77.0074 128.257 77.2634 128.193 77.5194C128.129 77.7648 128.065 77.9994 128.001 78.2234C127.948 78.4474 127.895 78.6501 127.841 78.8314L126.945 81.7754H129.793L128.881 78.8314Z" fill="black"/>
<path d="M250.067 282.422H400.659C400.749 282.422 400.839 282.423 400.93 282.425C401.019 282.427 401.109 282.431 401.198 282.435C401.288 282.439 401.377 282.444 401.467 282.45C401.556 282.456 401.644 282.464 401.732 282.472C401.821 282.48 401.909 282.489 401.996 282.5C402.083 282.51 402.17 282.521 402.256 282.534C402.342 282.546 402.428 282.559 402.512 282.573C402.597 282.588 402.681 282.603 402.764 282.619C402.847 282.635 402.929 282.652 403.011 282.67C403.092 282.688 403.173 282.707 403.252 282.727C403.332 282.747 403.41 282.768 403.487 282.79C403.564 282.812 403.64 282.834 403.715 282.858C403.79 282.881 403.863 282.906 403.936 282.931C404.008 282.956 404.079 282.982 404.148 283.009C404.218 283.036 404.286 283.063 404.353 283.092C404.42 283.12 404.485 283.149 404.549 283.179C404.612 283.209 404.674 283.24 404.735 283.271C404.795 283.302 404.854 283.334 404.911 283.367C404.968 283.4 405.024 283.433 405.077 283.467C405.131 283.501 405.183 283.536 405.233 283.571C405.283 283.606 405.331 283.642 405.377 283.678C405.423 283.714 405.468 283.751 405.51 283.788C405.552 283.826 405.593 283.863 405.632 283.902C405.67 283.94 405.707 283.979 405.741 284.018C405.775 284.057 405.808 284.096 405.838 284.136C405.869 284.176 405.897 284.216 405.923 284.256C405.949 284.297 405.973 284.338 405.995 284.379C406.017 284.42 406.036 284.461 406.054 284.503C406.072 284.544 406.087 284.586 406.1 284.628C406.113 284.669 406.124 284.711 406.133 284.753C406.142 284.796 406.149 284.838 406.153 284.88C406.157 284.922 406.16 284.964 406.16 285.007V373.214C406.16 373.256 406.157 373.299 406.153 373.341C406.149 373.383 406.142 373.426 406.133 373.468C406.124 373.51 406.113 373.552 406.1 373.594C406.087 373.635 406.072 373.677 406.054 373.718C406.036 373.76 406.017 373.801 405.995 373.842C405.973 373.883 405.949 373.924 405.923 373.964C405.897 374.005 405.869 374.045 405.838 374.085C405.808 374.125 405.775 374.164 405.741 374.203C405.707 374.242 405.67 374.281 405.632 374.319C405.593 374.357 405.552 374.395 405.51 374.433C405.468 374.47 405.423 374.507 405.377 374.543C405.331 374.579 405.283 374.615 405.233 374.65C405.183 374.685 405.131 374.72 405.077 374.754C405.024 374.788 404.968 374.821 404.911 374.854C404.854 374.886 404.795 374.918 404.735 374.95C404.674 374.981 404.612 375.012 404.549 375.042C404.485 375.072 404.42 375.101 404.353 375.129C404.286 375.158 404.218 375.185 404.148 375.212C404.079 375.239 404.008 375.265 403.936 375.29C403.863 375.315 403.79 375.34 403.715 375.363C403.64 375.387 403.564 375.409 403.487 375.431C403.41 375.453 403.332 375.474 403.252 375.493C403.173 375.513 403.092 375.532 403.011 375.551C402.929 375.569 402.847 375.586 402.764 375.602C402.681 375.618 402.597 375.633 402.512 375.647C402.428 375.662 402.342 375.675 402.256 375.688C402.17 375.7 402.083 375.711 401.996 375.721C401.909 375.731 401.821 375.741 401.732 375.749C401.644 375.757 401.556 375.765 401.467 375.771C401.377 375.777 401.288 375.782 401.198 375.786C401.109 375.79 401.019 375.794 400.93 375.795C400.839 375.798 400.749 375.799 400.659 375.799H250.067C249.977 375.799 249.887 375.798 249.798 375.795C249.708 375.794 249.618 375.79 249.528 375.786C249.439 375.782 249.349 375.777 249.26 375.771C249.171 375.765 249.083 375.757 248.994 375.749C248.906 375.741 248.818 375.731 248.731 375.721C248.644 375.711 248.557 375.7 248.471 375.688C248.385 375.675 248.299 375.662 248.214 375.647C248.13 375.633 248.046 375.618 247.963 375.602C247.879 375.586 247.797 375.569 247.716 375.551C247.634 375.532 247.554 375.513 247.475 375.493C247.395 375.474 247.317 375.453 247.24 375.431C247.163 375.409 247.086 375.387 247.012 375.363C246.937 375.34 246.863 375.315 246.791 375.29C246.719 375.265 246.648 375.239 246.578 375.212C246.509 375.185 246.44 375.158 246.374 375.129C246.307 375.101 246.242 375.072 246.178 375.042C246.114 375.012 246.052 374.981 245.992 374.95C245.932 374.918 245.873 374.886 245.816 374.854C245.759 374.821 245.703 374.788 245.65 374.754C245.596 374.72 245.544 374.685 245.494 374.65C245.444 374.615 245.396 374.579 245.35 374.543C245.303 374.507 245.259 374.47 245.217 374.433C245.174 374.395 245.134 374.357 245.095 374.319C245.057 374.281 245.02 374.242 244.986 374.203C244.951 374.164 244.919 374.125 244.889 374.085C244.858 374.045 244.83 374.005 244.804 373.964C244.778 373.924 244.754 373.883 244.732 373.842C244.71 373.801 244.69 373.76 244.673 373.718C244.655 373.677 244.64 373.635 244.627 373.594C244.613 373.552 244.602 373.51 244.594 373.468C244.585 373.426 244.578 373.383 244.574 373.341C244.569 373.299 244.567 373.256 244.567 373.214V285.007C244.567 284.964 244.569 284.922 244.574 284.88C244.578 284.838 244.585 284.796 244.594 284.753C244.602 284.711 244.613 284.669 244.627 284.628C244.64 284.586 244.655 284.544 244.673 284.503C244.69 284.461 244.71 284.42 244.732 284.379C244.754 284.338 244.778 284.297 244.804 284.256C244.83 284.216 244.858 284.176 244.889 284.136C244.919 284.096 244.951 284.057 244.986 284.018C245.02 283.979 245.057 283.94 245.095 283.902C245.134 283.863 245.174 283.826 245.217 283.788C245.259 283.751 245.303 283.714 245.35 283.678C245.396 283.642 245.444 283.606 245.494 283.571C245.544 283.536 245.596 283.501 245.65 283.467C245.703 283.433 245.759 283.4 245.816 283.367C245.873 283.334 245.932 283.302 245.992 283.271C246.052 283.24 246.114 283.209 246.178 283.179C246.242 283.149 246.307 283.12 246.374 283.092C246.44 283.063 246.509 283.036 246.578 283.009C246.648 282.982 246.719 282.956 246.791 282.931C246.863 282.906 246.937 282.881 247.012 282.858C247.086 282.834 247.163 282.812 247.24 282.79C247.317 282.768 247.395 282.747 247.475 282.727C247.554 282.707 247.634 282.688 247.716 282.67C247.797 282.652 247.879 282.635 247.963 282.619C248.046 282.603 248.13 282.588 248.214 282.573C248.299 282.559 248.385 282.546 248.471 282.534C248.557 282.521 248.644 282.51 248.731 282.5C248.818 282.489 248.906 282.48 248.994 282.472C249.083 282.464 249.171 282.456 249.26 282.45C249.349 282.444 249.439 282.439 249.528 282.435C249.618 282.431 249.708 282.427 249.798 282.425C249.887 282.423 249.977 282.422 250.067 282.422Z" stroke="black" stroke-width="4"/>
<path fill-rule="evenodd" clip-rule="evenodd" d="M264.393 351.792H312.527V353.023H264.393V351.792Z" fill="black"/>
<path fill-rule="evenodd" clip-rule="evenodd" d="M264.393 334.556H386.103V335.787H264.393V334.556Z" fill="black"/>
<path fill-rule="evenodd" clip-rule="evenodd" d="M264.393 317.321H386.103V318.552H264.393V317.321Z" fill="black"/>
<path fill-rule="evenodd" clip-rule="evenodd" d="M72 185H193.71V186.231H72V185Z" fill="black"/>
<path fill-rule="evenodd" clip-rule="evenodd" d="M72 170H193.71V171.231H72V170Z" fill="black"/>
<path d="M278.374 302.194C278.374 302.866 278.219 303.447 277.91 303.938C277.611 304.429 277.163 304.807 276.566 305.074C275.979 305.341 275.254 305.474 274.39 305.474C273.963 305.474 273.568 305.447 273.206 305.394C272.843 305.351 272.502 305.282 272.182 305.186C271.872 305.09 271.574 304.973 271.286 304.834V302.914C271.766 303.127 272.283 303.325 272.838 303.506C273.403 303.677 273.952 303.762 274.486 303.762C274.891 303.762 275.222 303.703 275.478 303.586C275.734 303.458 275.92 303.287 276.038 303.074C276.166 302.85 276.23 302.594 276.23 302.306C276.23 301.986 276.15 301.714 275.99 301.49C275.84 301.266 275.606 301.058 275.286 300.866C274.966 300.674 274.55 300.477 274.038 300.274C273.675 300.114 273.328 299.943 272.998 299.762C272.678 299.57 272.395 299.341 272.15 299.074C271.915 298.807 271.728 298.493 271.59 298.13C271.462 297.767 271.398 297.341 271.398 296.85C271.398 296.199 271.552 295.639 271.862 295.17C272.171 294.701 272.603 294.343 273.158 294.098C273.712 293.853 274.358 293.73 275.094 293.73C275.712 293.73 276.278 293.794 276.79 293.922C277.312 294.05 277.803 294.231 278.262 294.466L277.59 296.114C277.152 295.911 276.72 295.751 276.294 295.634C275.878 295.517 275.456 295.458 275.03 295.458C274.699 295.458 274.422 295.517 274.198 295.634C273.974 295.741 273.803 295.895 273.686 296.098C273.579 296.301 273.526 296.535 273.526 296.802C273.526 297.111 273.6 297.373 273.75 297.586C273.899 297.799 274.134 298.002 274.454 298.194C274.774 298.375 275.19 298.589 275.702 298.834C276.267 299.09 276.747 299.362 277.142 299.65C277.547 299.938 277.851 300.285 278.054 300.69C278.267 301.095 278.374 301.597 278.374 302.194ZM287.548 296.642V305.314H285.916L285.644 304.194H285.532C285.362 304.493 285.143 304.738 284.876 304.93C284.61 305.111 284.316 305.245 283.996 305.33C283.676 305.426 283.346 305.474 283.004 305.474C282.407 305.474 281.89 305.362 281.452 305.138C281.015 304.914 280.674 304.573 280.428 304.114C280.194 303.645 280.076 303.042 280.076 302.306V296.642H282.204V301.906C282.204 302.546 282.311 303.031 282.524 303.362C282.748 303.682 283.1 303.842 283.58 303.842C284.06 303.842 284.434 303.73 284.7 303.506C284.978 303.271 285.17 302.935 285.276 302.498C285.383 302.061 285.436 301.522 285.436 300.882V296.642H287.548ZM299.394 296.482C300.333 296.482 301.037 296.733 301.506 297.234C301.976 297.735 302.21 298.546 302.21 299.666V305.314H300.114V300.05C300.114 299.41 300.008 298.93 299.794 298.61C299.581 298.279 299.25 298.114 298.802 298.114C298.184 298.114 297.746 298.343 297.49 298.802C297.234 299.261 297.106 299.927 297.106 300.802V305.314H294.994V300.05C294.994 299.623 294.946 299.266 294.85 298.978C294.754 298.69 294.61 298.477 294.418 298.338C294.226 298.189 293.981 298.114 293.682 298.114C293.256 298.114 292.92 298.231 292.674 298.466C292.429 298.69 292.253 299.021 292.146 299.458C292.05 299.895 292.002 300.434 292.002 301.074V305.314H289.874V296.642H291.506L291.81 297.778H291.906C292.066 297.479 292.264 297.234 292.498 297.042C292.744 296.85 293.021 296.711 293.33 296.626C293.65 296.53 293.981 296.482 294.322 296.482C294.93 296.482 295.437 296.594 295.842 296.818C296.258 297.031 296.578 297.367 296.802 297.826H296.914C297.181 297.357 297.533 297.015 297.97 296.802C298.418 296.589 298.893 296.482 299.394 296.482ZM314.004 296.482C314.942 296.482 315.646 296.733 316.116 297.234C316.585 297.735 316.82 298.546 316.82 299.666V305.314H314.724V300.05C314.724 299.41 314.617 298.93 314.404 298.61C314.19 298.279 313.86 298.114 313.412 298.114C312.793 298.114 312.356 298.343 312.1 298.802C311.844 299.261 311.716 299.927 311.716 300.802V305.314H309.604V300.05C309.604 299.623 309.556 299.266 309.46 298.978C309.364 298.69 309.22 298.477 309.028 298.338C308.836 298.189 308.59 298.114 308.292 298.114C307.865 298.114 307.529 298.231 307.284 298.466C307.038 298.69 306.862 299.021 306.756 299.458C306.66 299.895 306.612 300.434 306.612 301.074V305.314H304.484V296.642H306.116L306.42 297.778H306.516C306.676 297.479 306.873 297.234 307.108 297.042C307.353 296.85 307.63 296.711 307.94 296.626C308.26 296.53 308.59 296.482 308.932 296.482C309.54 296.482 310.046 296.594 310.452 296.818C310.868 297.031 311.188 297.367 311.412 297.826H311.524C311.79 297.357 312.142 297.015 312.58 296.802C313.028 296.589 313.502 296.482 314.004 296.482ZM322.565 296.482C323.61 296.482 324.41 296.727 324.965 297.218C325.52 297.698 325.797 298.455 325.797 299.49V305.314H324.309L323.893 304.114H323.829C323.594 304.423 323.354 304.685 323.109 304.898C322.864 305.101 322.581 305.245 322.261 305.33C321.941 305.426 321.557 305.474 321.109 305.474C320.629 305.474 320.197 305.378 319.813 305.186C319.429 304.994 319.125 304.701 318.901 304.306C318.677 303.901 318.565 303.394 318.565 302.786C318.565 301.89 318.874 301.218 319.493 300.77C320.112 300.311 321.04 300.061 322.277 300.018L323.669 299.97V299.538C323.669 298.983 323.552 298.589 323.317 298.354C323.082 298.119 322.762 298.002 322.357 298.002C321.973 298.002 321.584 298.066 321.189 298.194C320.805 298.322 320.426 298.471 320.053 298.642L319.397 297.234C319.834 297.01 320.32 296.829 320.853 296.69C321.386 296.551 321.957 296.482 322.565 296.482ZM322.773 301.25C322.016 301.282 321.488 301.437 321.189 301.714C320.89 301.981 320.741 302.343 320.741 302.802C320.741 303.207 320.842 303.501 321.045 303.682C321.258 303.863 321.536 303.954 321.877 303.954C322.378 303.954 322.805 303.789 323.157 303.458C323.509 303.117 323.685 302.615 323.685 301.954V301.218L322.773 301.25ZM332.478 296.482C332.627 296.482 332.782 296.487 332.942 296.498C333.102 296.509 333.235 296.53 333.342 296.562L333.15 298.434C333.043 298.413 332.915 298.397 332.766 298.386C332.627 298.365 332.478 298.354 332.318 298.354C332.051 298.354 331.79 298.407 331.534 298.514C331.278 298.61 331.049 298.759 330.846 298.962C330.643 299.154 330.478 299.405 330.35 299.714C330.233 300.023 330.174 300.391 330.174 300.818V305.314H328.046V296.642H329.678L329.966 298.146H330.078C330.238 297.837 330.435 297.559 330.67 297.314C330.915 297.058 331.187 296.855 331.486 296.706C331.795 296.557 332.126 296.482 332.478 296.482ZM333.582 296.642H335.854L337.406 301.538C337.48 301.741 337.539 301.943 337.582 302.146C337.635 302.349 337.678 302.551 337.71 302.754C337.752 302.957 337.784 303.159 337.806 303.362H337.854C337.896 303.095 337.95 302.802 338.014 302.482C338.088 302.162 338.174 301.847 338.27 301.538L339.79 296.642H342.03L338.59 306.45C338.387 307.026 338.131 307.517 337.822 307.922C337.523 308.327 337.155 308.631 336.718 308.834C336.291 309.047 335.779 309.154 335.182 309.154C334.936 309.154 334.718 309.138 334.526 309.106C334.344 309.085 334.184 309.058 334.046 309.026V307.426C334.152 307.447 334.286 307.469 334.446 307.49C334.606 307.511 334.771 307.522 334.942 307.522C335.251 307.522 335.512 307.453 335.726 307.314C335.95 307.186 336.136 307.005 336.286 306.77C336.435 306.546 336.547 306.285 336.622 305.986L336.846 305.282L333.582 296.642Z" fill="black"/>
</svg>
